<svg xmlns="http://www.w3.org/2000/svg" xmlns:v="https://svgstorm.com"
viewBox = "0 0 1436 696"
width="1436"
height="696">
<g fill="None" fill-opacity="0.0" stroke="#000000" stroke-opacity="0.00" stroke-width="0.3"><path d="
M 0.00 696.00 
L 1436.00 696.00
L 1436.00 0.00
L 0.00 0.00
L 0.00 696.00
M 757.00 260.00 
C 756.70 265.03 754.82 277.59 757.00 282.00
C 760.60 286.98 774.64 285.37 780.22 288.78 C 785.81 292.19 795.95 298.10 790.69 305.69 C 785.44 313.29 778.96 314.53 770.78 316.78 C 762.60 319.02 752.63 319.82 744.00 320.00 C 735.37 320.18 725.28 318.91 716.98 317.02 C 708.67 315.14 701.98 314.49 695.75 307.25 C 689.53 300.00 698.46 293.20 704.23 289.23 C 710.00 285.25 724.74 287.61 729.00 283.00
C 730.79 280.22 728.59 271.32 729.00 268.00 C 729.41 264.68 730.20 256.07 728.00 254.00
C 719.22 250.59 712.61 251.28 702.93 249.07 C 693.24 246.86 693.62 236.50 694.00 227.00 C 694.38 217.50 693.14 206.42 695.98 197.98 C 698.82 189.53 701.18 185.33 706.30 178.30 C 711.43 171.28 710.78 161.97 706.69 154.31 C 702.61 146.64 701.93 140.92 697.08 132.92 C 692.22 124.93 696.28 115.80 694.00 106.00 C 691.72 96.20 696.87 87.82 705.23 86.23 C 713.59 84.64 721.11 78.02 721.00 71.00
C 720.72 67.97 720.36 63.22 722.00 61.00
C 722.00 60.50 722.00 60.00 722.00 60.00
C 719.58 56.96 734.89 56.38 740.00 57.00 C 745.11 57.62 758.17 56.53 764.00 57.00
C 763.20 66.52 763.35 79.06 773.75 83.25 C 784.14 87.45 793.16 89.97 792.00 102.00 C 790.84 114.03 794.21 122.66 788.68 132.68 C 783.15 142.70 781.67 148.24 777.07 158.07 C 772.48 167.91 777.31 175.69 783.25 183.75 C 789.20 191.81 791.39 201.47 792.00 212.00 C 792.61 222.53 791.88 236.69 790.00 247.00
C 779.20 250.05 768.14 252.11 757.00 254.00
C 757.00 256.00 757.00 258.00 757.00 260.00
M 449.00 539.00 
C 450.75 542.54 451.29 544.17 450.00 548.00
C 448.08 553.68 444.57 555.62 439.00 557.00
C 433.85 558.28 428.03 557.72 423.00 557.00
C 388.01 552.00 360.29 525.47 356.00 490.00
C 355.27 483.96 355.28 476.97 356.00 471.00
C 360.51 433.67 391.31 405.04 429.00 403.00
C 431.91 402.84 435.09 402.77 438.00 403.00
C 454.64 404.32 463.26 408.63 478.23 415.77 C 493.20 422.91 485.77 448.67 470.33 443.67 C 454.89 438.67 443.93 431.10 428.00 433.00 C 412.07 434.90 402.61 440.23 393.25 452.25 C 383.89 464.26 382.86 479.80 386.00 494.00 C 389.14 508.21 399.77 515.53 410.70 523.31 C 421.62 531.08 442.75 526.36 449.00 539.00
M 748.00 403.00 
C 765.90 405.73 761.00 435.78 742.78 432.22 C 724.55 428.66 728.75 400.07 748.00 403.00
M 929.00 431.00 
C 926.16 430.77 922.83 430.71 920.00 431.00
C 910.56 433.09 895.47 443.74 904.30 453.70 C 913.13 463.66 923.08 463.08 933.23 468.77 C 943.38 474.46 953.60 476.05 962.75 483.25 C 971.89 490.46 979.19 498.14 980.00 510.00
C 980.68 513.77 980.66 517.29 980.00 521.00
C 978.65 540.80 960.36 556.26 941.00 557.00
C 935.84 557.74 930.11 557.83 925.00 557.00
C 911.42 556.26 899.67 541.32 911.25 531.25 C 922.82 521.17 939.09 537.13 948.75 522.75 C 958.42 508.37 941.90 500.72 930.92 496.08 C 919.95 491.43 906.06 487.54 895.31 481.69 C 884.55 475.85 873.87 465.71 873.00 453.00
C 872.27 448.95 872.17 445.01 873.00 441.00
C 876.23 425.39 885.51 414.07 900.23 407.23 C 914.95 400.39 937.97 403.50 951.23 408.77 C 964.48 414.04 983.02 428.56 970.75 441.75 C 958.48 454.94 942.69 432.09 929.00 431.00
M 248.00 503.00 
C 252.54 491.23 261.65 479.25 264.77 466.77 C 267.89 454.29 280.15 437.23 293.25 448.75 C 306.35 460.28 291.15 475.89 287.23 487.23 C 283.31 498.57 276.15 513.94 271.23 524.23 C 266.31 534.52 262.28 555.65 248.00 555.00 C 233.71 554.35 230.46 534.35 225.23 523.77 C 220.00 513.19 214.17 498.26 209.23 486.77 C 204.29 475.28 196.95 460.83 193.02 448.98 C 189.10 437.12 174.34 422.39 186.75 410.75 C 199.16 399.11 212.20 415.12 215.31 427.69 C 218.41 440.27 227.51 452.56 231.92 465.08 C 236.34 477.59 243.34 490.43 248.00 503.00
M 305.00 407.00 
C 322.20 411.26 314.08 441.67 296.33 435.67 C 278.58 429.67 286.40 402.39 305.00 407.00
M 588.00 554.00 
C 583.52 554.73 578.14 555.00 573.00 555.00
C 567.30 555.00 560.95 555.40 556.00 554.00
C 549.24 552.09 546.37 548.63 545.00 542.00
C 541.15 523.40 543.74 499.58 544.00 480.00 C 544.26 460.42 540.45 436.36 545.00 418.00
C 547.11 409.48 556.50 402.92 565.69 408.31 C 574.89 413.70 573.06 424.26 573.00 434.00 C 572.94 443.74 572.93 457.09 573.00 467.00 C 573.07 476.91 572.76 490.65 573.00 500.00 C 573.24 509.35 569.23 527.01 581.00 525.00 C 592.77 522.99 599.07 527.78 601.99 537.01 C 604.91 546.24 596.97 554.60 588.00 554.00
M 1072.00 444.00 
C 1072.00 450.90 1072.62 458.13 1072.00 465.00
C 1074.39 466.76 1078.85 466.00 1082.00 466.00
C 1082.50 466.00 1083.00 466.00 1083.00 466.00
C 1087.67 466.00 1092.33 466.00 1097.00 466.00
C 1099.67 466.00 1102.33 466.00 1105.00 466.00
C 1110.75 466.00 1117.00 465.76 1122.00 467.00
C 1129.42 468.84 1135.83 475.22 1133.67 483.67 C 1131.51 492.12 1123.78 494.58 1116.00 495.00
C 1107.60 495.46 1098.32 494.56 1090.00 495.00 C 1081.68 495.44 1071.68 491.83 1071.00 502.00
C 1071.19 505.53 1071.11 507.78 1071.00 511.00
C 1071.25 514.38 1072.37 518.89 1072.00 523.00
C 1073.28 527.84 1089.89 524.34 1096.00 525.00 C 1102.11 525.66 1116.13 525.07 1123.00 525.00 C 1129.87 524.93 1138.26 526.15 1140.77 533.23 C 1143.28 540.31 1142.91 548.77 1134.92 551.92 C 1126.94 555.08 1121.35 554.53 1111.00 554.00 C 1100.65 553.47 1096.56 555.45 1084.00 554.00 C 1071.44 552.55 1045.99 560.27 1043.00 542.00
C 1042.92 541.51 1043.00 541.00 1043.00 541.00
C 1040.66 537.83 1042.00 530.15 1042.00 526.00
C 1042.00 521.67 1042.00 517.33 1042.00 513.00
C 1042.00 509.33 1042.00 505.67 1042.00 502.00
C 1042.00 485.33 1042.00 468.67 1042.00 452.00
C 1042.00 450.00 1042.00 448.00 1042.00 446.00
C 1042.00 442.33 1042.00 438.67 1042.00 435.00
C 1042.00 432.33 1042.00 429.67 1042.00 427.00
C 1042.00 410.59 1052.82 405.93 1067.00 407.00 C 1081.18 408.07 1097.06 403.66 1099.99 420.01 C 1102.92 436.35 1083.20 436.97 1072.00 436.00
C 1072.00 438.67 1072.00 441.33 1072.00 444.00
M 1132.00 407.00 
C 1149.08 411.63 1141.12 441.18 1123.33 435.67 C 1105.54 430.16 1113.17 401.90 1132.00 407.00
M 1260.00 425.00 
C 1260.20 428.64 1260.00 432.35 1260.00 436.00
C 1260.00 453.04 1258.28 470.89 1259.00 488.00 C 1259.72 505.11 1258.06 524.36 1259.00 541.00 C 1259.94 557.64 1232.25 559.55 1231.03 542.98 C 1229.80 526.40 1231.61 507.21 1231.00 490.00 C 1230.39 472.79 1231.46 453.41 1231.00 436.00
C 1217.92 431.02 1192.74 446.23 1187.08 425.92 C 1181.42 405.61 1208.98 405.53 1223.00 407.00 C 1237.02 408.47 1262.48 401.97 1260.00 425.00
M 1294.00 407.00 
C 1311.06 411.62 1302.62 441.59 1284.78 435.22 C 1266.94 428.85 1275.80 402.07 1294.00 407.00
M 719.00 438.00 
C 716.05 442.82 710.48 445.85 707.00 450.00
C 701.89 457.16 698.96 465.59 697.00 474.00
C 696.58 477.73 696.67 482.26 697.00 486.00
C 699.07 509.50 717.11 521.28 737.00 528.00
C 740.54 528.40 744.44 528.07 748.00 528.00
C 771.09 527.54 791.19 507.84 793.00 485.00
C 793.23 482.13 793.23 478.87 793.00 476.00
C 792.10 464.68 787.18 450.69 776.25 443.75 C 765.32 436.81 769.27 415.52 783.02 416.02 C 796.77 416.53 802.14 428.88 809.92 438.08 C 817.70 447.28 822.00 463.80 822.00 476.00
C 822.27 478.82 822.27 482.24 822.00 485.00
C 822.00 520.31 789.76 555.64 754.00 557.00
C 749.89 557.59 744.80 558.26 740.00 558.00
C 724.91 557.18 709.96 551.67 697.77 542.23 C 685.58 532.79 678.95 522.44 672.68 508.32 C 666.41 494.20 666.40 475.03 670.33 459.33 C 674.25 443.62 683.29 435.89 693.25 423.25 C 703.20 410.60 729.65 420.62 719.00 438.00
M 890.00 510.00 
C 906.77 515.09 897.11 544.92 879.99 538.01 C 862.88 531.10 870.77 504.16 890.00 510.00
M 479.00 515.00 
C 497.05 518.86 489.54 548.91 471.33 543.67 C 453.12 538.43 460.85 511.12 479.00 515.00
M 634.00 525.00 
C 651.36 529.30 643.54 559.34 625.98 554.02 C 608.41 548.70 615.27 520.36 634.00 525.00 Z"/>
</g>
<g fill="None" fill-opacity="0.0" stroke="#FC7262" stroke-opacity="0.84" stroke-width="0.3"><path d="
M 722.00 60.00 
C 723.17 55.52 723.94 72.29 722.00 71.00
C 721.65 70.77 721.00 71.00 721.00 71.00
C 721.11 78.02 713.59 84.64 705.23 86.23 C 696.87 87.82 691.72 96.20 694.00 106.00 C 696.28 115.80 692.22 124.93 697.08 132.92 C 701.93 140.92 702.61 146.64 706.69 154.31 C 710.78 161.97 711.43 171.28 706.30 178.30 C 701.18 185.33 698.82 189.53 695.98 197.98 C 693.14 206.42 694.38 217.50 694.00 227.00 C 693.62 236.50 693.24 246.86 702.93 249.07 C 712.61 251.28 719.22 250.59 728.00 254.00
C 730.31 254.90 730.86 262.20 730.00 267.00 C 729.14 271.80 732.16 279.58 729.00 283.00
C 724.74 287.61 710.00 285.25 704.23 289.23 C 698.46 293.20 689.53 300.00 695.75 307.25 C 701.98 314.49 708.67 315.14 716.98 317.02 C 725.28 318.91 735.37 320.18 744.00 320.00 C 752.63 319.82 762.60 319.02 770.78 316.78 C 778.96 314.53 785.44 313.29 790.69 305.69 C 795.95 298.10 785.81 292.19 780.22 288.78 C 774.64 285.37 760.60 286.98 757.00 282.00
C 753.73 277.46 756.18 264.84 757.00 260.00
C 757.00 258.00 757.00 256.00 757.00 254.00
C 768.14 252.11 779.20 250.05 790.00 247.00
C 791.88 236.69 792.61 222.53 792.00 212.00 C 791.39 201.47 789.20 191.81 783.25 183.75 C 777.31 175.69 772.48 167.91 777.07 158.07 C 781.67 148.24 783.15 142.70 788.68 132.68 C 794.21 122.66 790.84 114.03 792.00 102.00 C 793.16 89.97 784.14 87.45 773.75 83.25 C 763.35 79.06 763.20 66.52 764.00 57.00
C 758.17 56.53 745.11 57.62 740.00 57.00 C 734.89 56.38 719.58 56.96 722.00 60.00
M 784.00 97.00 
C 786.62 99.19 785.28 116.22 784.00 121.00
C 779.44 138.07 758.91 159.97 769.77 178.23 C 780.63 196.48 788.74 217.90 783.00 241.00
C 771.76 243.32 760.27 244.70 749.00 247.00
C 747.04 249.72 749.41 257.34 749.00 261.00 C 748.59 264.66 748.38 272.29 749.00 276.00 C 749.62 279.71 746.94 288.09 749.00 291.00
C 751.98 293.95 766.16 292.81 769.67 294.33 C 773.18 295.84 787.66 298.90 782.74 303.74 C 777.82 308.59 771.30 307.70 764.93 309.93 C 758.56 312.15 748.06 310.30 741.00 311.00 C 733.94 311.70 725.62 309.92 718.93 309.07 C 712.24 308.23 706.57 305.63 701.00 302.00
C 708.47 293.73 720.58 293.39 731.00 292.00
C 732.46 291.70 734.88 290.18 737.00 291.00
C 737.00 276.33 737.00 261.67 737.00 247.00
C 732.61 242.30 723.02 244.98 715.93 243.07 C 708.83 241.17 701.94 240.47 703.00 231.00 C 704.06 221.53 700.93 215.21 703.00 207.00 C 705.07 198.79 705.23 194.89 709.75 188.75 C 714.28 182.62 716.49 179.41 718.33 172.33 C 720.16 165.24 717.49 157.47 715.02 150.98 C 712.56 144.48 709.00 140.69 707.03 133.97 C 705.06 127.26 700.20 122.46 702.00 114.00 C 703.80 105.54 696.93 98.24 708.23 94.23 C 719.53 90.22 732.81 78.72 730.00 65.00
C 738.67 65.00 747.33 65.00 756.00 65.00
C 753.37 82.32 770.25 92.42 784.00 97.00 Z"/>
</g>
<g fill="None" fill-opacity="0.0" stroke="#F36959" stroke-opacity="0.55" stroke-width="0.3"><path d="
M 722.00 60.00 
C 722.00 60.00 722.00 60.50 722.00 61.00
C 722.00 64.29 722.30 67.73 722.00 71.00
C 723.94 72.29 723.17 55.52 722.00 60.00 Z"/>
</g>
<g fill="None" fill-opacity="0.0" stroke="#FFFFFF" stroke-opacity="0.00" stroke-width="0.3"><path d="
M 721.00 71.00 
C 721.00 71.00 721.65 70.77 722.00 71.00
C 722.30 67.73 722.00 64.29 722.00 61.00
C 720.36 63.22 720.72 67.97 721.00 71.00 Z"/>
</g>
<g fill="None" fill-opacity="0.0" stroke="#000000" stroke-opacity="0.00" stroke-width="0.3"><path d="
M 737.00 247.00 
C 741.97 252.32 736.61 264.01 738.00 272.00 C 739.39 279.99 740.37 290.95 731.00 292.00
C 720.58 293.39 708.47 293.73 701.00 302.00
C 706.57 305.63 712.24 308.23 718.93 309.07 C 725.62 309.92 733.94 311.70 741.00 311.00 C 748.06 310.30 758.56 312.15 764.93 309.93 C 771.30 307.70 777.82 308.59 782.74 303.74 C 787.66 298.90 773.18 295.84 769.67 294.33 C 766.16 292.81 751.98 293.95 749.00 291.00
C 745.78 287.81 748.01 273.75 748.00 269.00 C 747.99 264.25 745.80 250.11 749.00 247.00
C 760.27 244.70 771.76 243.32 783.00 241.00
C 788.74 217.90 780.63 196.48 769.77 178.23 C 758.91 159.97 779.44 138.07 784.00 121.00
C 784.47 117.64 784.41 112.29 784.00 109.00 C 783.59 105.71 785.57 99.75 784.00 97.00
C 770.25 92.42 753.37 82.32 756.00 65.00
C 747.33 65.00 738.67 65.00 730.00 65.00
C 732.81 78.72 719.53 90.22 708.23 94.23 C 696.93 98.24 703.80 105.54 702.00 114.00 C 700.20 122.46 705.06 127.26 707.03 133.97 C 709.00 140.69 712.56 144.48 715.02 150.98 C 717.49 157.47 720.16 165.24 718.33 172.33 C 716.49 179.41 714.28 182.62 709.75 188.75 C 705.23 194.89 705.07 198.79 703.00 207.00 C 700.93 215.21 704.06 221.53 703.00 231.00 C 701.94 240.47 708.83 241.17 715.93 243.07 C 723.02 244.98 732.61 242.30 737.00 247.00 Z"/>
</g>
<g fill="None" fill-opacity="0.0" stroke="#FD8576" stroke-opacity="0.30" stroke-width="0.3"><path d="
M 784.00 97.00 
C 785.57 99.75 783.59 105.71 784.00 109.00 C 784.41 112.29 784.47 117.64 784.00 121.00
C 785.28 116.22 786.62 99.19 784.00 97.00 Z"/>
</g>
<g fill="None" fill-opacity="0.0" stroke="#FE8E85" stroke-opacity="0.10" stroke-width="0.3"><path d="
M 731.00 292.00 
C 740.37 290.95 739.39 279.99 738.00 272.00 C 736.61 264.01 741.97 252.32 737.00 247.00
C 737.00 261.67 737.00 276.33 737.00 291.00
C 734.88 290.18 732.46 291.70 731.00 292.00 Z"/>
</g>
<g fill="None" fill-opacity="0.0" stroke="#FE8F7F" stroke-opacity="0.08" stroke-width="0.3"><path d="
M 749.00 291.00 
C 746.94 288.09 749.62 279.71 749.00 276.00 C 748.38 272.29 748.59 264.66 749.00 261.00 C 749.41 257.34 747.04 249.72 749.00 247.00
C 745.80 250.11 747.99 264.25 748.00 269.00 C 748.01 273.75 745.78 287.81 749.00 291.00 Z"/>
</g>
<g fill="None" fill-opacity="0.0" stroke="#FE8676" stroke-opacity="0.19" stroke-width="0.3"><path d="
M 728.00 254.00 
C 730.20 256.07 729.41 264.68 729.00 268.00 C 728.59 271.32 730.79 280.22 729.00 283.00
C 732.16 279.58 729.14 271.80 730.00 267.00 C 730.86 262.20 730.31 254.90 728.00 254.00 Z"/>
</g>
<g fill="None" fill-opacity="0.0" stroke="#FE9896" stroke-opacity="0.05" stroke-width="0.3"><path d="
M 757.00 282.00 
C 754.82 277.59 756.70 265.03 757.00 260.00
C 756.18 264.84 753.73 277.46 757.00 282.00 Z"/>
</g>
<g fill="None" fill-opacity="0.0" stroke="#4A6572" stroke-opacity="0.95" stroke-width="0.3"><path d="
M 356.00 471.00 
C 356.38 477.45 356.44 483.56 356.00 490.00
C 360.29 525.47 388.01 552.00 423.00 557.00
C 428.14 556.79 433.99 557.18 439.00 557.00
C 444.57 555.62 448.08 553.68 450.00 548.00
C 450.53 545.03 449.90 541.69 449.00 539.00
C 442.75 526.36 421.62 531.08 410.70 523.31 C 399.77 515.53 389.14 508.21 386.00 494.00 C 382.86 479.80 383.89 464.26 393.25 452.25 C 402.61 440.23 412.07 434.90 428.00 433.00 C 443.93 431.10 454.89 438.67 470.33 443.67 C 485.77 448.67 493.20 422.91 478.23 415.77 C 463.26 408.63 454.64 404.32 438.00 403.00
C 435.75 403.04 431.22 403.09 429.00 403.00
C 391.31 405.04 360.51 433.67 356.00 471.00 Z"/>
</g>
<g fill="None" fill-opacity="0.0" stroke="#5C747F" stroke-opacity="0.38" stroke-width="0.3"><path d="
M 438.00 403.00 
C 435.09 402.77 431.91 402.84 429.00 403.00
C 431.22 403.09 435.75 403.04 438.00 403.00 Z"/>
</g>
<g fill="None" fill-opacity="0.0" stroke="#FC7061" stroke-opacity="0.91" stroke-width="0.3"><path d="
M 748.00 403.00 
C 728.75 400.07 724.55 428.66 742.78 432.22 C 761.00 435.78 765.90 405.73 748.00 403.00 Z"/>
</g>
<g fill="None" fill-opacity="0.0" stroke="#4A6572" stroke-opacity="0.95" stroke-width="0.3"><path d="
M 873.00 441.00 
C 872.65 444.83 872.74 449.17 873.00 453.00
C 873.87 465.71 884.55 475.85 895.31 481.69 C 906.06 487.54 919.95 491.43 930.92 496.08 C 941.90 500.72 958.42 508.37 948.75 522.75 C 939.09 537.13 922.82 521.17 911.25 531.25 C 899.67 541.32 911.42 556.26 925.00 557.00
C 930.25 557.28 935.74 557.20 941.00 557.00
C 960.36 556.26 978.65 540.80 980.00 521.00
C 980.24 517.45 980.24 513.55 980.00 510.00
C 979.19 498.14 971.89 490.46 962.75 483.25 C 953.60 476.05 943.38 474.46 933.23 468.77 C 923.08 463.08 913.13 463.66 904.30 453.70 C 895.47 443.74 910.56 433.09 920.00 431.00
C 923.27 430.28 925.81 430.38 929.00 431.00
C 942.69 432.09 958.48 454.94 970.75 441.75 C 983.02 428.56 964.48 414.04 951.23 408.77 C 937.97 403.50 914.95 400.39 900.23 407.23 C 885.51 414.07 876.23 425.39 873.00 441.00 Z"/>
</g>
<g fill="None" fill-opacity="0.0" stroke="#4A6572" stroke-opacity="0.95" stroke-width="0.3"><path d="
M 248.00 503.00 
C 243.34 490.43 236.34 477.59 231.92 465.08 C 227.51 452.56 218.41 440.27 215.31 427.69 C 212.20 415.12 199.16 399.11 186.75 410.75 C 174.34 422.39 189.10 437.12 193.02 448.98 C 196.95 460.83 204.29 475.28 209.23 486.77 C 214.17 498.26 220.00 513.19 225.23 523.77 C 230.46 534.35 233.71 554.35 248.00 555.00 C 262.28 555.65 266.31 534.52 271.23 524.23 C 276.15 513.94 283.31 498.57 287.23 487.23 C 291.15 475.89 306.35 460.28 293.25 448.75 C 280.15 437.23 267.89 454.29 264.77 466.77 C 261.65 479.25 252.54 491.23 248.00 503.00 Z"/>
</g>
<g fill="None" fill-opacity="0.0" stroke="#FC6F60" stroke-opacity="0.90" stroke-width="0.3"><path d="
M 305.00 407.00 
C 286.40 402.39 278.58 429.67 296.33 435.67 C 314.08 441.67 322.20 411.26 305.00 407.00 Z"/>
</g>
<g fill="None" fill-opacity="0.0" stroke="#48636F" stroke-opacity="0.97" stroke-width="0.3"><path d="
M 545.00 418.00 
C 542.51 438.08 545.25 459.74 545.00 480.00 C 544.75 500.27 543.17 521.82 545.00 542.00
C 546.37 548.63 549.24 552.09 556.00 554.00
C 563.28 554.41 580.48 549.18 587.00 554.00
C 587.50 554.00 588.00 554.00 588.00 554.00
C 596.97 554.60 604.91 546.24 601.99 537.01 C 599.07 527.78 592.77 522.99 581.00 525.00 C 569.23 527.01 573.24 509.35 573.00 500.00 C 572.76 490.65 573.07 476.91 573.00 467.00 C 572.93 457.09 572.94 443.74 573.00 434.00 C 573.06 424.26 574.89 413.70 565.69 408.31 C 556.50 402.92 547.11 409.48 545.00 418.00 Z"/>
</g>
<g fill="None" fill-opacity="0.0" stroke="#496470" stroke-opacity="0.97" stroke-width="0.3"><path d="
M 1042.00 427.00 
C 1042.19 425.05 1043.93 421.66 1043.00 419.00
C 1044.67 458.93 1044.67 502.14 1043.00 542.00
C 1045.99 560.27 1071.44 552.55 1084.00 554.00 C 1096.56 555.45 1100.65 553.47 1111.00 554.00 C 1121.35 554.53 1126.94 555.08 1134.92 551.92 C 1142.91 548.77 1143.28 540.31 1140.77 533.23 C 1138.26 526.15 1129.87 524.93 1123.00 525.00 C 1116.13 525.07 1102.11 525.66 1096.00 525.00 C 1089.89 524.34 1073.28 527.84 1072.00 523.00
C 1071.97 522.88 1071.00 523.00 1071.00 523.00
C 1070.38 523.41 1069.05 513.22 1070.00 510.00 C 1070.95 506.78 1067.94 496.14 1071.00 494.00
C 1074.43 491.60 1081.74 495.26 1086.00 494.00 C 1090.26 492.74 1096.40 494.95 1101.00 494.00 C 1105.60 493.05 1112.12 494.83 1116.00 495.00
C 1123.78 494.58 1131.51 492.12 1133.67 483.67 C 1135.83 475.22 1129.42 468.84 1122.00 467.00
C 1116.59 466.33 1109.79 466.46 1105.00 466.00
C 1102.33 466.00 1099.67 466.00 1097.00 466.00
C 1093.31 466.36 1086.58 468.65 1083.00 466.00
C 1083.00 466.00 1082.50 466.00 1082.00 466.00
C 1080.10 467.41 1071.20 468.51 1071.00 465.00
C 1070.38 458.04 1071.40 450.18 1072.00 444.00
C 1072.00 441.33 1072.00 438.67 1072.00 436.00
C 1083.20 436.97 1102.92 436.35 1099.99 420.01 C 1097.06 403.66 1081.18 408.07 1067.00 407.00 C 1052.82 405.93 1042.00 410.59 1042.00 427.00 Z"/>
</g>
<g fill="None" fill-opacity="0.0" stroke="#FC6E60" stroke-opacity="0.90" stroke-width="0.3"><path d="
M 1132.00 407.00 
C 1113.17 401.90 1105.54 430.16 1123.33 435.67 C 1141.12 441.18 1149.08 411.63 1132.00 407.00 Z"/>
</g>
<g fill="None" fill-opacity="0.0" stroke="#486470" stroke-opacity="0.96" stroke-width="0.3"><path d="
M 1260.00 436.00 
C 1259.68 432.70 1259.87 428.16 1260.00 425.00
C 1262.48 401.97 1237.02 408.47 1223.00 407.00 C 1208.98 405.53 1181.42 405.61 1187.08 425.92 C 1192.74 446.23 1217.92 431.02 1231.00 436.00
C 1231.46 453.41 1230.39 472.79 1231.00 490.00 C 1231.61 507.21 1229.80 526.40 1231.03 542.98 C 1232.25 559.55 1259.94 557.64 1259.00 541.00 C 1258.06 524.36 1259.72 505.11 1259.00 488.00 C 1258.28 470.89 1260.00 453.04 1260.00 436.00 Z"/>
</g>
<g fill="None" fill-opacity="0.0" stroke="#FC6E5F" stroke-opacity="0.91" stroke-width="0.3"><path d="
M 1294.00 407.00 
C 1275.80 402.07 1266.94 428.85 1284.78 435.22 C 1302.62 441.59 1311.06 411.62 1294.00 407.00 Z"/>
</g>
<g fill="None" fill-opacity="0.0" stroke="#4A6572" stroke-opacity="0.95" stroke-width="0.3"><path d="
M 740.00 558.00 
C 743.85 557.84 749.46 557.17 754.00 557.00
C 789.76 555.64 822.00 520.31 822.00 485.00
C 822.00 482.00 822.00 479.00 822.00 476.00
C 822.00 463.80 817.70 447.28 809.92 438.08 C 802.14 428.88 796.77 416.53 783.02 416.02 C 769.27 415.52 765.32 436.81 776.25 443.75 C 787.18 450.69 792.10 464.68 793.00 476.00
C 793.62 479.24 793.61 481.82 793.00 485.00
C 791.19 507.84 771.09 527.54 748.00 528.00
C 748.44 528.15 749.79 529.40 750.00 530.00
C 745.64 529.75 740.25 530.97 737.00 528.00
C 717.11 521.28 699.07 509.50 697.00 486.00
C 696.18 481.95 696.07 478.01 697.00 474.00
C 698.96 465.59 701.89 457.16 707.00 450.00
C 710.24 445.47 715.89 442.31 719.00 438.00
C 729.65 420.62 703.20 410.60 693.25 423.25 C 683.29 435.89 674.25 443.62 670.33 459.33 C 666.40 475.03 666.41 494.20 672.68 508.32 C 678.95 522.44 685.58 532.79 697.77 542.23 C 709.96 551.67 724.91 557.18 740.00 558.00 Z"/>
</g>
<g fill="None" fill-opacity="0.0" stroke="#5D7A8A" stroke-opacity="0.10" stroke-width="0.3"><path d="
M 545.00 542.00 
C 543.17 521.82 544.75 500.27 545.00 480.00 C 545.25 459.74 542.51 438.08 545.00 418.00
C 540.45 436.36 544.26 460.42 544.00 480.00 C 543.74 499.58 541.15 523.40 545.00 542.00 Z"/>
</g>
<g fill="None" fill-opacity="0.0" stroke="#445F6E" stroke-opacity="0.59" stroke-width="0.3"><path d="
M 1042.00 427.00 
C 1042.00 429.67 1042.00 432.33 1042.00 435.00
C 1042.33 438.46 1042.33 442.61 1042.00 446.00
C 1042.00 448.00 1042.00 450.00 1042.00 452.00
C 1043.53 467.83 1043.00 485.44 1043.00 502.00
C 1043.00 505.75 1042.29 509.99 1042.00 513.00
C 1042.00 517.33 1042.00 521.67 1042.00 526.00
C 1042.42 530.39 1043.00 535.93 1043.00 541.00
C 1043.00 541.00 1042.92 541.51 1043.00 542.00
C 1044.67 502.14 1044.67 458.93 1043.00 419.00
C 1043.93 421.66 1042.19 425.05 1042.00 427.00 Z"/>
</g>
<g fill="None" fill-opacity="0.0" stroke="#758788" stroke-opacity="0.07" stroke-width="0.3"><path d="
M 1260.00 436.00 
C 1260.00 432.35 1260.20 428.64 1260.00 425.00
C 1259.87 428.16 1259.68 432.70 1260.00 436.00 Z"/>
</g>
<g fill="None" fill-opacity="0.0" stroke="#607A80" stroke-opacity="0.11" stroke-width="0.3"><path d="
M 920.00 431.00 
C 922.83 430.71 926.16 430.77 929.00 431.00
C 925.81 430.38 923.27 430.28 920.00 431.00 Z"/>
</g>
<g fill="None" fill-opacity="0.0" stroke="#84A1A1" stroke-opacity="0.03" stroke-width="0.3"><path d="
M 1042.00 446.00 
C 1042.33 442.61 1042.33 438.46 1042.00 435.00
C 1042.00 438.67 1042.00 442.33 1042.00 446.00 Z"/>
</g>
<g fill="None" fill-opacity="0.0" stroke="#638089" stroke-opacity="0.15" stroke-width="0.3"><path d="
M 707.00 450.00 
C 710.48 445.85 716.05 442.82 719.00 438.00
C 715.89 442.31 710.24 445.47 707.00 450.00 Z"/>
</g>
<g fill="None" fill-opacity="0.0" stroke="#C3D4D4" stroke-opacity="0.01" stroke-width="0.3"><path d="
M 873.00 453.00 
C 872.74 449.17 872.65 444.83 873.00 441.00
C 872.17 445.01 872.27 448.95 873.00 453.00 Z"/>
</g>
<g fill="None" fill-opacity="0.0" stroke="#90FFFF" stroke-opacity="0.00" stroke-width="0.3"><path d="
M 1071.00 465.00 
C 1071.00 465.04 1072.00 465.00 1072.00 465.00
C 1072.62 458.13 1072.00 450.90 1072.00 444.00
C 1071.40 450.18 1070.38 458.04 1071.00 465.00 Z"/>
</g>
<g fill="None" fill-opacity="0.0" stroke="#F7F7F7" stroke-opacity="0.01" stroke-width="0.3"><path d="
M 1042.00 502.00 
C 1042.00 501.96 1043.00 502.00 1043.00 502.00
C 1043.00 485.44 1043.53 467.83 1042.00 452.00
C 1042.00 468.67 1042.00 485.33 1042.00 502.00 Z"/>
</g>
<g fill="None" fill-opacity="0.0" stroke="#5B6E90" stroke-opacity="0.07" stroke-width="0.3"><path d="
M 1082.00 466.00 
C 1078.85 466.00 1074.39 466.76 1072.00 465.00
C 1072.00 465.00 1071.00 465.04 1071.00 465.00
C 1071.20 468.51 1080.10 467.41 1082.00 466.00 Z"/>
</g>
<g fill="None" fill-opacity="0.0" stroke="#5B6D91" stroke-opacity="0.05" stroke-width="0.3"><path d="
M 1097.00 466.00 
C 1092.33 466.00 1087.67 466.00 1083.00 466.00
C 1086.58 468.65 1093.31 466.36 1097.00 466.00 Z"/>
</g>
<g fill="None" fill-opacity="0.0" stroke="#5B6C85" stroke-opacity="0.06" stroke-width="0.3"><path d="
M 1122.00 467.00 
C 1117.00 465.76 1110.75 466.00 1105.00 466.00
C 1109.79 466.46 1116.59 466.33 1122.00 467.00 Z"/>
</g>
<g fill="None" fill-opacity="0.0" stroke="#5F7883" stroke-opacity="0.62" stroke-width="0.3"><path d="
M 356.00 490.00 
C 356.44 483.56 356.38 477.45 356.00 471.00
C 355.28 476.97 355.27 483.96 356.00 490.00 Z"/>
</g>
<g fill="None" fill-opacity="0.0" stroke="#617B8B" stroke-opacity="0.15" stroke-width="0.3"><path d="
M 697.00 486.00 
C 696.67 482.26 696.58 477.73 697.00 474.00
C 696.07 478.01 696.18 481.95 697.00 486.00 Z"/>
</g>
<g fill="None" fill-opacity="0.0" stroke="#61798E" stroke-opacity="0.07" stroke-width="0.3"><path d="
M 793.00 485.00 
C 793.61 481.82 793.62 479.24 793.00 476.00
C 793.23 478.87 793.23 482.13 793.00 485.00 Z"/>
</g>
<g fill="None" fill-opacity="0.0" stroke="#5F8A9B" stroke-opacity="0.08" stroke-width="0.3"><path d="
M 822.00 485.00 
C 822.27 482.24 822.27 478.82 822.00 476.00
C 822.00 479.00 822.00 482.00 822.00 485.00 Z"/>
</g>
<g fill="None" fill-opacity="0.0" stroke="#3D5765" stroke-opacity="0.72" stroke-width="0.3"><path d="
M 1071.00 523.00 
C 1070.65 519.12 1070.87 514.90 1071.00 511.00
C 1071.11 507.78 1071.19 505.53 1071.00 502.00
C 1070.86 499.34 1071.11 496.66 1071.00 494.00
C 1067.94 496.14 1070.95 506.78 1070.00 510.00 C 1069.05 513.22 1070.38 523.41 1071.00 523.00 Z"/>
</g>
<g fill="None" fill-opacity="0.0" stroke="#7A979B" stroke-opacity="0.08" stroke-width="0.3"><path d="
M 1071.00 502.00 
C 1071.68 491.83 1081.68 495.44 1090.00 495.00 C 1098.32 494.56 1107.60 495.46 1116.00 495.00
C 1112.12 494.83 1105.60 493.05 1101.00 494.00 C 1096.40 494.95 1090.26 492.74 1086.00 494.00 C 1081.74 495.26 1074.43 491.60 1071.00 494.00
C 1071.11 496.66 1070.86 499.34 1071.00 502.00 Z"/>
</g>
<g fill="None" fill-opacity="0.0" stroke="#B1B1B1" stroke-opacity="0.01" stroke-width="0.3"><path d="
M 1042.00 513.00 
C 1042.29 509.99 1043.00 505.75 1043.00 502.00
C 1043.00 502.00 1042.00 501.96 1042.00 502.00
C 1042.00 505.67 1042.00 509.33 1042.00 513.00 Z"/>
</g>
<g fill="None" fill-opacity="0.0" stroke="#FC6F60" stroke-opacity="0.91" stroke-width="0.3"><path d="
M 890.00 510.00 
C 870.77 504.16 862.88 531.10 879.99 538.01 C 897.11 544.92 906.77 515.09 890.00 510.00 Z"/>
</g>
<g fill="None" fill-opacity="0.0" stroke="#708A97" stroke-opacity="0.12" stroke-width="0.3"><path d="
M 980.00 521.00 
C 980.66 517.29 980.68 513.77 980.00 510.00
C 980.24 513.55 980.24 517.45 980.00 521.00 Z"/>
</g>
<g fill="None" fill-opacity="0.0" stroke="#B1FFFF" stroke-opacity="0.00" stroke-width="0.3"><path d="
M 1071.00 523.00 
C 1071.00 523.00 1071.97 522.88 1072.00 523.00
C 1072.37 518.89 1071.25 514.38 1071.00 511.00
C 1070.87 514.90 1070.65 519.12 1071.00 523.00 Z"/>
</g>
<g fill="None" fill-opacity="0.0" stroke="#FC6F61" stroke-opacity="0.91" stroke-width="0.3"><path d="
M 479.00 515.00 
C 460.85 511.12 453.12 538.43 471.33 543.67 C 489.54 548.91 497.05 518.86 479.00 515.00 Z"/>
</g>
<g fill="None" fill-opacity="0.0" stroke="#FC7061" stroke-opacity="0.90" stroke-width="0.3"><path d="
M 634.00 525.00 
C 615.27 520.36 608.41 548.70 625.98 554.02 C 643.54 559.34 651.36 529.30 634.00 525.00 Z"/>
</g>
<g fill="None" fill-opacity="0.0" stroke="#88A1B2" stroke-opacity="0.02" stroke-width="0.3"><path d="
M 1043.00 541.00 
C 1043.00 535.93 1042.42 530.39 1042.00 526.00
C 1042.00 530.15 1040.66 537.83 1043.00 541.00 Z"/>
</g>
<g fill="None" fill-opacity="0.0" stroke="#52678A" stroke-opacity="0.38" stroke-width="0.3"><path d="
M 748.00 528.00 
C 744.44 528.07 740.54 528.40 737.00 528.00
C 740.25 530.97 745.64 529.75 750.00 530.00
C 749.79 529.40 748.44 528.15 748.00 528.00 Z"/>
</g>
<g fill="None" fill-opacity="0.0" stroke="#8B9297" stroke-opacity="0.10" stroke-width="0.3"><path d="
M 450.00 548.00 
C 451.29 544.17 450.75 542.54 449.00 539.00
C 449.90 541.69 450.53 545.03 450.00 548.00 Z"/>
</g>
<g fill="None" fill-opacity="0.0" stroke="#586B74" stroke-opacity="0.58" stroke-width="0.3"><path d="
M 556.00 554.00 
C 561.67 554.00 567.33 554.00 573.00 554.00
C 577.67 554.00 582.33 554.00 587.00 554.00
C 580.48 549.18 563.28 554.41 556.00 554.00 Z"/>
</g>
<g fill="None" fill-opacity="0.0" stroke="#E5FFFF" stroke-opacity="0.01" stroke-width="0.3"><path d="
M 573.00 555.00 
C 572.96 555.00 573.00 554.00 573.00 554.00
C 567.33 554.00 561.67 554.00 556.00 554.00
C 560.95 555.40 567.30 555.00 573.00 555.00 Z"/>
</g>
<g fill="None" fill-opacity="0.0" stroke="#81FFFF" stroke-opacity="0.00" stroke-width="0.3"><path d="
M 573.00 555.00 
C 578.14 555.00 583.52 554.73 588.00 554.00
C 588.00 554.00 587.50 554.00 587.00 554.00
C 582.33 554.00 577.67 554.00 573.00 554.00
C 573.00 554.00 572.96 555.00 573.00 555.00 Z"/>
</g>
<g fill="None" fill-opacity="0.0" stroke="#6C848D" stroke-opacity="0.52" stroke-width="0.3"><path d="
M 423.00 557.00 
C 428.03 557.72 433.85 558.28 439.00 557.00
C 433.99 557.18 428.14 556.79 423.00 557.00 Z"/>
</g>
<g fill="None" fill-opacity="0.0" stroke="#6D858E" stroke-opacity="0.26" stroke-width="0.3"><path d="
M 740.00 558.00 
C 744.80 558.26 749.89 557.59 754.00 557.00
C 749.46 557.17 743.85 557.84 740.00 558.00 Z"/>
</g>
<g fill="None" fill-opacity="0.0" stroke="#778B95" stroke-opacity="0.18" stroke-width="0.3"><path d="
M 941.00 557.00 
C 935.74 557.20 930.25 557.28 925.00 557.00
C 930.11 557.83 935.84 557.74 941.00 557.00 Z"/>
</g>
<g fill="#000000" fill-opacity="0.00" stroke="None">
<path d="
M 0.00 696.00 
L 1436.00 696.00
L 1436.00 0.00
L 0.00 0.00
L 0.00 696.00
M 757.00 260.00 
C 756.70 265.03 754.82 277.59 757.00 282.00
C 760.60 286.98 774.64 285.37 780.22 288.78 C 785.81 292.19 795.95 298.10 790.69 305.69 C 785.44 313.29 778.96 314.53 770.78 316.78 C 762.60 319.02 752.63 319.82 744.00 320.00 C 735.37 320.18 725.28 318.91 716.98 317.02 C 708.67 315.14 701.98 314.49 695.75 307.25 C 689.53 300.00 698.46 293.20 704.23 289.23 C 710.00 285.25 724.74 287.61 729.00 283.00
C 730.79 280.22 728.59 271.32 729.00 268.00 C 729.41 264.68 730.20 256.07 728.00 254.00
C 719.22 250.59 712.61 251.28 702.93 249.07 C 693.24 246.86 693.62 236.50 694.00 227.00 C 694.38 217.50 693.14 206.42 695.98 197.98 C 698.82 189.53 701.18 185.33 706.30 178.30 C 711.43 171.28 710.78 161.97 706.69 154.31 C 702.61 146.64 701.93 140.92 697.08 132.92 C 692.22 124.93 696.28 115.80 694.00 106.00 C 691.72 96.20 696.87 87.82 705.23 86.23 C 713.59 84.64 721.11 78.02 721.00 71.00
C 720.72 67.97 720.36 63.22 722.00 61.00
C 722.00 60.50 722.00 60.00 722.00 60.00
C 719.58 56.96 734.89 56.38 740.00 57.00 C 745.11 57.62 758.17 56.53 764.00 57.00
C 763.20 66.52 763.35 79.06 773.75 83.25 C 784.14 87.45 793.16 89.97 792.00 102.00 C 790.84 114.03 794.21 122.66 788.68 132.68 C 783.15 142.70 781.67 148.24 777.07 158.07 C 772.48 167.91 777.31 175.69 783.25 183.75 C 789.20 191.81 791.39 201.47 792.00 212.00 C 792.61 222.53 791.88 236.69 790.00 247.00
C 779.20 250.05 768.14 252.11 757.00 254.00
C 757.00 256.00 757.00 258.00 757.00 260.00
M 449.00 539.00 
C 450.75 542.54 451.29 544.17 450.00 548.00
C 448.08 553.68 444.57 555.62 439.00 557.00
C 433.85 558.28 428.03 557.72 423.00 557.00
C 388.01 552.00 360.29 525.47 356.00 490.00
C 355.27 483.96 355.28 476.97 356.00 471.00
C 360.51 433.67 391.31 405.04 429.00 403.00
C 431.91 402.84 435.09 402.77 438.00 403.00
C 454.64 404.32 463.26 408.63 478.23 415.77 C 493.20 422.91 485.77 448.67 470.33 443.67 C 454.89 438.67 443.93 431.10 428.00 433.00 C 412.07 434.90 402.61 440.23 393.25 452.25 C 383.89 464.26 382.86 479.80 386.00 494.00 C 389.14 508.21 399.77 515.53 410.70 523.31 C 421.62 531.08 442.75 526.36 449.00 539.00
M 748.00 403.00 
C 765.90 405.73 761.00 435.78 742.78 432.22 C 724.55 428.66 728.75 400.07 748.00 403.00
M 929.00 431.00 
C 926.16 430.77 922.83 430.71 920.00 431.00
C 910.56 433.09 895.47 443.74 904.30 453.70 C 913.13 463.66 923.08 463.08 933.23 468.77 C 943.38 474.46 953.60 476.05 962.75 483.25 C 971.89 490.46 979.19 498.14 980.00 510.00
C 980.68 513.77 980.66 517.29 980.00 521.00
C 978.65 540.80 960.36 556.26 941.00 557.00
C 935.84 557.74 930.11 557.83 925.00 557.00
C 911.42 556.26 899.67 541.32 911.25 531.25 C 922.82 521.17 939.09 537.13 948.75 522.75 C 958.42 508.37 941.90 500.72 930.92 496.08 C 919.95 491.43 906.06 487.54 895.31 481.69 C 884.55 475.85 873.87 465.71 873.00 453.00
C 872.27 448.95 872.17 445.01 873.00 441.00
C 876.23 425.39 885.51 414.07 900.23 407.23 C 914.95 400.39 937.97 403.50 951.23 408.77 C 964.48 414.04 983.02 428.56 970.75 441.75 C 958.48 454.94 942.69 432.09 929.00 431.00
M 248.00 503.00 
C 252.54 491.23 261.65 479.25 264.77 466.77 C 267.89 454.29 280.15 437.23 293.25 448.75 C 306.35 460.28 291.15 475.89 287.23 487.23 C 283.31 498.57 276.15 513.94 271.23 524.23 C 266.31 534.52 262.28 555.65 248.00 555.00 C 233.71 554.35 230.46 534.35 225.23 523.77 C 220.00 513.19 214.17 498.26 209.23 486.77 C 204.29 475.28 196.95 460.83 193.02 448.98 C 189.10 437.12 174.34 422.39 186.75 410.75 C 199.16 399.11 212.20 415.12 215.31 427.69 C 218.41 440.27 227.51 452.56 231.92 465.08 C 236.34 477.59 243.34 490.43 248.00 503.00
M 305.00 407.00 
C 322.20 411.26 314.08 441.67 296.33 435.67 C 278.58 429.67 286.40 402.39 305.00 407.00
M 588.00 554.00 
C 583.52 554.73 578.14 555.00 573.00 555.00
C 567.30 555.00 560.95 555.40 556.00 554.00
C 549.24 552.09 546.37 548.63 545.00 542.00
C 541.15 523.40 543.74 499.58 544.00 480.00 C 544.26 460.42 540.45 436.36 545.00 418.00
C 547.11 409.48 556.50 402.92 565.69 408.31 C 574.89 413.70 573.06 424.26 573.00 434.00 C 572.94 443.74 572.93 457.09 573.00 467.00 C 573.07 476.91 572.76 490.65 573.00 500.00 C 573.24 509.35 569.23 527.01 581.00 525.00 C 592.77 522.99 599.07 527.78 601.99 537.01 C 604.91 546.24 596.97 554.60 588.00 554.00
M 1072.00 444.00 
C 1072.00 450.90 1072.62 458.13 1072.00 465.00
C 1074.39 466.76 1078.85 466.00 1082.00 466.00
C 1082.50 466.00 1083.00 466.00 1083.00 466.00
C 1087.67 466.00 1092.33 466.00 1097.00 466.00
C 1099.67 466.00 1102.33 466.00 1105.00 466.00
C 1110.75 466.00 1117.00 465.76 1122.00 467.00
C 1129.42 468.84 1135.83 475.22 1133.67 483.67 C 1131.51 492.12 1123.78 494.58 1116.00 495.00
C 1107.60 495.46 1098.32 494.56 1090.00 495.00 C 1081.68 495.44 1071.68 491.83 1071.00 502.00
C 1071.19 505.53 1071.11 507.78 1071.00 511.00
C 1071.25 514.38 1072.37 518.89 1072.00 523.00
C 1073.28 527.84 1089.89 524.34 1096.00 525.00 C 1102.11 525.66 1116.13 525.07 1123.00 525.00 C 1129.87 524.93 1138.26 526.15 1140.77 533.23 C 1143.28 540.31 1142.91 548.77 1134.92 551.92 C 1126.94 555.08 1121.35 554.53 1111.00 554.00 C 1100.65 553.47 1096.56 555.45 1084.00 554.00 C 1071.44 552.55 1045.99 560.27 1043.00 542.00
C 1042.92 541.51 1043.00 541.00 1043.00 541.00
C 1040.66 537.83 1042.00 530.15 1042.00 526.00
C 1042.00 521.67 1042.00 517.33 1042.00 513.00
C 1042.00 509.33 1042.00 505.67 1042.00 502.00
C 1042.00 485.33 1042.00 468.67 1042.00 452.00
C 1042.00 450.00 1042.00 448.00 1042.00 446.00
C 1042.00 442.33 1042.00 438.67 1042.00 435.00
C 1042.00 432.33 1042.00 429.67 1042.00 427.00
C 1042.00 410.59 1052.82 405.93 1067.00 407.00 C 1081.18 408.07 1097.06 403.66 1099.99 420.01 C 1102.92 436.35 1083.20 436.97 1072.00 436.00
C 1072.00 438.67 1072.00 441.33 1072.00 444.00
M 1132.00 407.00 
C 1149.08 411.63 1141.12 441.18 1123.33 435.67 C 1105.54 430.16 1113.17 401.90 1132.00 407.00
M 1260.00 425.00 
C 1260.20 428.64 1260.00 432.35 1260.00 436.00
C 1260.00 453.04 1258.28 470.89 1259.00 488.00 C 1259.72 505.11 1258.06 524.36 1259.00 541.00 C 1259.94 557.64 1232.25 559.55 1231.03 542.98 C 1229.80 526.40 1231.61 507.21 1231.00 490.00 C 1230.39 472.79 1231.46 453.41 1231.00 436.00
C 1217.92 431.02 1192.74 446.23 1187.08 425.92 C 1181.42 405.61 1208.98 405.53 1223.00 407.00 C 1237.02 408.47 1262.48 401.97 1260.00 425.00
M 1294.00 407.00 
C 1311.06 411.62 1302.62 441.59 1284.78 435.22 C 1266.94 428.85 1275.80 402.07 1294.00 407.00
M 719.00 438.00 
C 716.05 442.82 710.48 445.85 707.00 450.00
C 701.89 457.16 698.96 465.59 697.00 474.00
C 696.58 477.73 696.67 482.26 697.00 486.00
C 699.07 509.50 717.11 521.28 737.00 528.00
C 740.54 528.40 744.44 528.07 748.00 528.00
C 771.09 527.54 791.19 507.84 793.00 485.00
C 793.23 482.13 793.23 478.87 793.00 476.00
C 792.10 464.68 787.18 450.69 776.25 443.75 C 765.32 436.81 769.27 415.52 783.02 416.02 C 796.77 416.53 802.14 428.88 809.92 438.08 C 817.70 447.28 822.00 463.80 822.00 476.00
C 822.27 478.82 822.27 482.24 822.00 485.00
C 822.00 520.31 789.76 555.64 754.00 557.00
C 749.89 557.59 744.80 558.26 740.00 558.00
C 724.91 557.18 709.96 551.67 697.77 542.23 C 685.58 532.79 678.95 522.44 672.68 508.32 C 666.41 494.20 666.40 475.03 670.33 459.33 C 674.25 443.62 683.29 435.89 693.25 423.25 C 703.20 410.60 729.65 420.62 719.00 438.00
M 890.00 510.00 
C 906.77 515.09 897.11 544.92 879.99 538.01 C 862.88 531.10 870.77 504.16 890.00 510.00
M 479.00 515.00 
C 497.05 518.86 489.54 548.91 471.33 543.67 C 453.12 538.43 460.85 511.12 479.00 515.00
M 634.00 525.00 
C 651.36 529.30 643.54 559.34 625.98 554.02 C 608.41 548.70 615.27 520.36 634.00 525.00 Z"/>
</g>
<g fill="#FC7262" fill-opacity="0.84" stroke="None">
<path d="
M 722.00 60.00 
C 723.17 55.52 723.94 72.29 722.00 71.00
C 721.65 70.77 721.00 71.00 721.00 71.00
C 721.11 78.02 713.59 84.64 705.23 86.23 C 696.87 87.82 691.72 96.20 694.00 106.00 C 696.28 115.80 692.22 124.93 697.08 132.92 C 701.93 140.92 702.61 146.64 706.69 154.31 C 710.78 161.97 711.43 171.28 706.30 178.30 C 701.18 185.33 698.82 189.53 695.98 197.98 C 693.14 206.42 694.38 217.50 694.00 227.00 C 693.62 236.50 693.24 246.86 702.93 249.07 C 712.61 251.28 719.22 250.59 728.00 254.00
C 730.31 254.90 730.86 262.20 730.00 267.00 C 729.14 271.80 732.16 279.58 729.00 283.00
C 724.74 287.61 710.00 285.25 704.23 289.23 C 698.46 293.20 689.53 300.00 695.75 307.25 C 701.98 314.49 708.67 315.14 716.98 317.02 C 725.28 318.91 735.37 320.18 744.00 320.00 C 752.63 319.82 762.60 319.02 770.78 316.78 C 778.96 314.53 785.44 313.29 790.69 305.69 C 795.95 298.10 785.81 292.19 780.22 288.78 C 774.64 285.37 760.60 286.98 757.00 282.00
C 753.73 277.46 756.18 264.84 757.00 260.00
C 757.00 258.00 757.00 256.00 757.00 254.00
C 768.14 252.11 779.20 250.05 790.00 247.00
C 791.88 236.69 792.61 222.53 792.00 212.00 C 791.39 201.47 789.20 191.81 783.25 183.75 C 777.31 175.69 772.48 167.91 777.07 158.07 C 781.67 148.24 783.15 142.70 788.68 132.68 C 794.21 122.66 790.84 114.03 792.00 102.00 C 793.16 89.97 784.14 87.45 773.75 83.25 C 763.35 79.06 763.20 66.52 764.00 57.00
C 758.17 56.53 745.11 57.62 740.00 57.00 C 734.89 56.38 719.58 56.96 722.00 60.00
M 784.00 97.00 
C 786.62 99.19 785.28 116.22 784.00 121.00
C 779.44 138.07 758.91 159.97 769.77 178.23 C 780.63 196.48 788.74 217.90 783.00 241.00
C 771.76 243.32 760.27 244.70 749.00 247.00
C 747.04 249.72 749.41 257.34 749.00 261.00 C 748.59 264.66 748.38 272.29 749.00 276.00 C 749.62 279.71 746.94 288.09 749.00 291.00
C 751.98 293.95 766.16 292.81 769.67 294.33 C 773.18 295.84 787.66 298.90 782.74 303.74 C 777.82 308.59 771.30 307.70 764.93 309.93 C 758.56 312.15 748.06 310.30 741.00 311.00 C 733.94 311.70 725.62 309.92 718.93 309.07 C 712.24 308.23 706.57 305.63 701.00 302.00
C 708.47 293.73 720.58 293.39 731.00 292.00
C 732.46 291.70 734.88 290.18 737.00 291.00
C 737.00 276.33 737.00 261.67 737.00 247.00
C 732.61 242.30 723.02 244.98 715.93 243.07 C 708.83 241.17 701.94 240.47 703.00 231.00 C 704.06 221.53 700.93 215.21 703.00 207.00 C 705.07 198.79 705.23 194.89 709.75 188.75 C 714.28 182.62 716.49 179.41 718.33 172.33 C 720.16 165.24 717.49 157.47 715.02 150.98 C 712.56 144.48 709.00 140.69 707.03 133.97 C 705.06 127.26 700.20 122.46 702.00 114.00 C 703.80 105.54 696.93 98.24 708.23 94.23 C 719.53 90.22 732.81 78.72 730.00 65.00
C 738.67 65.00 747.33 65.00 756.00 65.00
C 753.37 82.32 770.25 92.42 784.00 97.00 Z"/>
</g>
<g fill="#F36959" fill-opacity="0.55" stroke="None">
<path d="
M 722.00 60.00 
C 722.00 60.00 722.00 60.50 722.00 61.00
C 722.00 64.29 722.30 67.73 722.00 71.00
C 723.94 72.29 723.17 55.52 722.00 60.00 Z"/>
</g>
<g fill="#FFFFFF" fill-opacity="0.00" stroke="None">
<path d="
M 721.00 71.00 
C 721.00 71.00 721.65 70.77 722.00 71.00
C 722.30 67.73 722.00 64.29 722.00 61.00
C 720.36 63.22 720.72 67.97 721.00 71.00 Z"/>
</g>
<g fill="#000000" fill-opacity="0.00" stroke="None">
<path d="
M 737.00 247.00 
C 741.97 252.32 736.61 264.01 738.00 272.00 C 739.39 279.99 740.37 290.95 731.00 292.00
C 720.58 293.39 708.47 293.73 701.00 302.00
C 706.57 305.63 712.24 308.23 718.93 309.07 C 725.62 309.92 733.94 311.70 741.00 311.00 C 748.06 310.30 758.56 312.15 764.93 309.93 C 771.30 307.70 777.82 308.59 782.74 303.74 C 787.66 298.90 773.18 295.84 769.67 294.33 C 766.16 292.81 751.98 293.95 749.00 291.00
C 745.78 287.81 748.01 273.75 748.00 269.00 C 747.99 264.25 745.80 250.11 749.00 247.00
C 760.27 244.70 771.76 243.32 783.00 241.00
C 788.74 217.90 780.63 196.48 769.77 178.23 C 758.91 159.97 779.44 138.07 784.00 121.00
C 784.47 117.64 784.41 112.29 784.00 109.00 C 783.59 105.71 785.57 99.75 784.00 97.00
C 770.25 92.42 753.37 82.32 756.00 65.00
C 747.33 65.00 738.67 65.00 730.00 65.00
C 732.81 78.72 719.53 90.22 708.23 94.23 C 696.93 98.24 703.80 105.54 702.00 114.00 C 700.20 122.46 705.06 127.26 707.03 133.97 C 709.00 140.69 712.56 144.48 715.02 150.98 C 717.49 157.47 720.16 165.24 718.33 172.33 C 716.49 179.41 714.28 182.62 709.75 188.75 C 705.23 194.89 705.07 198.79 703.00 207.00 C 700.93 215.21 704.06 221.53 703.00 231.00 C 701.94 240.47 708.83 241.17 715.93 243.07 C 723.02 244.98 732.61 242.30 737.00 247.00 Z"/>
</g>
<g fill="#FD8576" fill-opacity="0.30" stroke="None">
<path d="
M 784.00 97.00 
C 785.57 99.75 783.59 105.71 784.00 109.00 C 784.41 112.29 784.47 117.64 784.00 121.00
C 785.28 116.22 786.62 99.19 784.00 97.00 Z"/>
</g>
<g fill="#FE8E85" fill-opacity="0.10" stroke="None">
<path d="
M 731.00 292.00 
C 740.37 290.95 739.39 279.99 738.00 272.00 C 736.61 264.01 741.97 252.32 737.00 247.00
C 737.00 261.67 737.00 276.33 737.00 291.00
C 734.88 290.18 732.46 291.70 731.00 292.00 Z"/>
</g>
<g fill="#FE8F7F" fill-opacity="0.08" stroke="None">
<path d="
M 749.00 291.00 
C 746.94 288.09 749.62 279.71 749.00 276.00 C 748.38 272.29 748.59 264.66 749.00 261.00 C 749.41 257.34 747.04 249.72 749.00 247.00
C 745.80 250.11 747.99 264.25 748.00 269.00 C 748.01 273.75 745.78 287.81 749.00 291.00 Z"/>
</g>
<g fill="#FE8676" fill-opacity="0.19" stroke="None">
<path d="
M 728.00 254.00 
C 730.20 256.07 729.41 264.68 729.00 268.00 C 728.59 271.32 730.79 280.22 729.00 283.00
C 732.16 279.58 729.14 271.80 730.00 267.00 C 730.86 262.20 730.31 254.90 728.00 254.00 Z"/>
</g>
<g fill="#FE9896" fill-opacity="0.05" stroke="None">
<path d="
M 757.00 282.00 
C 754.82 277.59 756.70 265.03 757.00 260.00
C 756.18 264.84 753.73 277.46 757.00 282.00 Z"/>
</g>
<g fill="#4A6572" fill-opacity="0.95" stroke="None">
<path d="
M 356.00 471.00 
C 356.38 477.45 356.44 483.56 356.00 490.00
C 360.29 525.47 388.01 552.00 423.00 557.00
C 428.14 556.79 433.99 557.18 439.00 557.00
C 444.57 555.62 448.08 553.68 450.00 548.00
C 450.53 545.03 449.90 541.69 449.00 539.00
C 442.75 526.36 421.62 531.08 410.70 523.31 C 399.77 515.53 389.14 508.21 386.00 494.00 C 382.86 479.80 383.89 464.26 393.25 452.25 C 402.61 440.23 412.07 434.90 428.00 433.00 C 443.93 431.10 454.89 438.67 470.33 443.67 C 485.77 448.67 493.20 422.91 478.23 415.77 C 463.26 408.63 454.64 404.32 438.00 403.00
C 435.75 403.04 431.22 403.09 429.00 403.00
C 391.31 405.04 360.51 433.67 356.00 471.00 Z"/>
</g>
<g fill="#5C747F" fill-opacity="0.38" stroke="None">
<path d="
M 438.00 403.00 
C 435.09 402.77 431.91 402.84 429.00 403.00
C 431.22 403.09 435.75 403.04 438.00 403.00 Z"/>
</g>
<g fill="#FC7061" fill-opacity="0.91" stroke="None">
<path d="
M 748.00 403.00 
C 728.75 400.07 724.55 428.66 742.78 432.22 C 761.00 435.78 765.90 405.73 748.00 403.00 Z"/>
</g>
<g fill="#4A6572" fill-opacity="0.95" stroke="None">
<path d="
M 873.00 441.00 
C 872.65 444.83 872.74 449.17 873.00 453.00
C 873.87 465.71 884.55 475.85 895.31 481.69 C 906.06 487.54 919.95 491.43 930.92 496.08 C 941.90 500.72 958.42 508.37 948.75 522.75 C 939.09 537.13 922.82 521.17 911.25 531.25 C 899.67 541.32 911.42 556.26 925.00 557.00
C 930.25 557.28 935.74 557.20 941.00 557.00
C 960.36 556.26 978.65 540.80 980.00 521.00
C 980.24 517.45 980.24 513.55 980.00 510.00
C 979.19 498.14 971.89 490.46 962.75 483.25 C 953.60 476.05 943.38 474.46 933.23 468.77 C 923.08 463.08 913.13 463.66 904.30 453.70 C 895.47 443.74 910.56 433.09 920.00 431.00
C 923.27 430.28 925.81 430.38 929.00 431.00
C 942.69 432.09 958.48 454.94 970.75 441.75 C 983.02 428.56 964.48 414.04 951.23 408.77 C 937.97 403.50 914.95 400.39 900.23 407.23 C 885.51 414.07 876.23 425.39 873.00 441.00 Z"/>
</g>
<g fill="#4A6572" fill-opacity="0.95" stroke="None">
<path d="
M 248.00 503.00 
C 243.34 490.43 236.34 477.59 231.92 465.08 C 227.51 452.56 218.41 440.27 215.31 427.69 C 212.20 415.12 199.16 399.11 186.75 410.75 C 174.34 422.39 189.10 437.12 193.02 448.98 C 196.95 460.83 204.29 475.28 209.23 486.77 C 214.17 498.26 220.00 513.19 225.23 523.77 C 230.46 534.35 233.71 554.35 248.00 555.00 C 262.28 555.65 266.31 534.52 271.23 524.23 C 276.15 513.94 283.31 498.57 287.23 487.23 C 291.15 475.89 306.35 460.28 293.25 448.75 C 280.15 437.23 267.89 454.29 264.77 466.77 C 261.65 479.25 252.54 491.23 248.00 503.00 Z"/>
</g>
<g fill="#FC6F60" fill-opacity="0.90" stroke="None">
<path d="
M 305.00 407.00 
C 286.40 402.39 278.58 429.67 296.33 435.67 C 314.08 441.67 322.20 411.26 305.00 407.00 Z"/>
</g>
<g fill="#48636F" fill-opacity="0.97" stroke="None">
<path d="
M 545.00 418.00 
C 542.51 438.08 545.25 459.74 545.00 480.00 C 544.75 500.27 543.17 521.82 545.00 542.00
C 546.37 548.63 549.24 552.09 556.00 554.00
C 563.28 554.41 580.48 549.18 587.00 554.00
C 587.50 554.00 588.00 554.00 588.00 554.00
C 596.97 554.60 604.91 546.24 601.99 537.01 C 599.07 527.78 592.77 522.99 581.00 525.00 C 569.23 527.01 573.24 509.35 573.00 500.00 C 572.76 490.65 573.07 476.91 573.00 467.00 C 572.93 457.09 572.94 443.74 573.00 434.00 C 573.06 424.26 574.89 413.70 565.69 408.31 C 556.50 402.92 547.11 409.48 545.00 418.00 Z"/>
</g>
<g fill="#496470" fill-opacity="0.97" stroke="None">
<path d="
M 1042.00 427.00 
C 1042.19 425.05 1043.93 421.66 1043.00 419.00
C 1044.67 458.93 1044.67 502.14 1043.00 542.00
C 1045.99 560.27 1071.44 552.55 1084.00 554.00 C 1096.56 555.45 1100.65 553.47 1111.00 554.00 C 1121.35 554.53 1126.94 555.08 1134.92 551.92 C 1142.91 548.77 1143.28 540.31 1140.77 533.23 C 1138.26 526.15 1129.87 524.93 1123.00 525.00 C 1116.13 525.07 1102.11 525.66 1096.00 525.00 C 1089.89 524.34 1073.28 527.84 1072.00 523.00
C 1071.97 522.88 1071.00 523.00 1071.00 523.00
C 1070.38 523.41 1069.05 513.22 1070.00 510.00 C 1070.95 506.78 1067.94 496.14 1071.00 494.00
C 1074.43 491.60 1081.74 495.26 1086.00 494.00 C 1090.26 492.74 1096.40 494.95 1101.00 494.00 C 1105.60 493.05 1112.12 494.83 1116.00 495.00
C 1123.78 494.58 1131.51 492.12 1133.67 483.67 C 1135.83 475.22 1129.42 468.84 1122.00 467.00
C 1116.59 466.33 1109.79 466.46 1105.00 466.00
C 1102.33 466.00 1099.67 466.00 1097.00 466.00
C 1093.31 466.36 1086.58 468.65 1083.00 466.00
C 1083.00 466.00 1082.50 466.00 1082.00 466.00
C 1080.10 467.41 1071.20 468.51 1071.00 465.00
C 1070.38 458.04 1071.40 450.18 1072.00 444.00
C 1072.00 441.33 1072.00 438.67 1072.00 436.00
C 1083.20 436.97 1102.92 436.35 1099.99 420.01 C 1097.06 403.66 1081.18 408.07 1067.00 407.00 C 1052.82 405.93 1042.00 410.59 1042.00 427.00 Z"/>
</g>
<g fill="#FC6E60" fill-opacity="0.90" stroke="None">
<path d="
M 1132.00 407.00 
C 1113.17 401.90 1105.54 430.16 1123.33 435.67 C 1141.12 441.18 1149.08 411.63 1132.00 407.00 Z"/>
</g>
<g fill="#486470" fill-opacity="0.96" stroke="None">
<path d="
M 1260.00 436.00 
C 1259.68 432.70 1259.87 428.16 1260.00 425.00
C 1262.48 401.97 1237.02 408.47 1223.00 407.00 C 1208.98 405.53 1181.42 405.61 1187.08 425.92 C 1192.74 446.23 1217.92 431.02 1231.00 436.00
C 1231.46 453.41 1230.39 472.79 1231.00 490.00 C 1231.61 507.21 1229.80 526.40 1231.03 542.98 C 1232.25 559.55 1259.94 557.64 1259.00 541.00 C 1258.06 524.36 1259.72 505.11 1259.00 488.00 C 1258.28 470.89 1260.00 453.04 1260.00 436.00 Z"/>
</g>
<g fill="#FC6E5F" fill-opacity="0.91" stroke="None">
<path d="
M 1294.00 407.00 
C 1275.80 402.07 1266.94 428.85 1284.78 435.22 C 1302.62 441.59 1311.06 411.62 1294.00 407.00 Z"/>
</g>
<g fill="#4A6572" fill-opacity="0.95" stroke="None">
<path d="
M 740.00 558.00 
C 743.85 557.84 749.46 557.17 754.00 557.00
C 789.76 555.64 822.00 520.31 822.00 485.00
C 822.00 482.00 822.00 479.00 822.00 476.00
C 822.00 463.80 817.70 447.28 809.92 438.08 C 802.14 428.88 796.77 416.53 783.02 416.02 C 769.27 415.52 765.32 436.81 776.25 443.75 C 787.18 450.69 792.10 464.68 793.00 476.00
C 793.62 479.24 793.61 481.82 793.00 485.00
C 791.19 507.84 771.09 527.54 748.00 528.00
C 748.44 528.15 749.79 529.40 750.00 530.00
C 745.64 529.75 740.25 530.97 737.00 528.00
C 717.11 521.28 699.07 509.50 697.00 486.00
C 696.18 481.95 696.07 478.01 697.00 474.00
C 698.96 465.59 701.89 457.16 707.00 450.00
C 710.24 445.47 715.89 442.31 719.00 438.00
C 729.65 420.62 703.20 410.60 693.25 423.25 C 683.29 435.89 674.25 443.62 670.33 459.33 C 666.40 475.03 666.41 494.20 672.68 508.32 C 678.95 522.44 685.58 532.79 697.77 542.23 C 709.96 551.67 724.91 557.18 740.00 558.00 Z"/>
</g>
<g fill="#5D7A8A" fill-opacity="0.10" stroke="None">
<path d="
M 545.00 542.00 
C 543.17 521.82 544.75 500.27 545.00 480.00 C 545.25 459.74 542.51 438.08 545.00 418.00
C 540.45 436.36 544.26 460.42 544.00 480.00 C 543.74 499.58 541.15 523.40 545.00 542.00 Z"/>
</g>
<g fill="#445F6E" fill-opacity="0.59" stroke="None">
<path d="
M 1042.00 427.00 
C 1042.00 429.67 1042.00 432.33 1042.00 435.00
C 1042.33 438.46 1042.33 442.61 1042.00 446.00
C 1042.00 448.00 1042.00 450.00 1042.00 452.00
C 1043.53 467.83 1043.00 485.44 1043.00 502.00
C 1043.00 505.75 1042.29 509.99 1042.00 513.00
C 1042.00 517.33 1042.00 521.67 1042.00 526.00
C 1042.42 530.39 1043.00 535.93 1043.00 541.00
C 1043.00 541.00 1042.92 541.51 1043.00 542.00
C 1044.67 502.14 1044.67 458.93 1043.00 419.00
C 1043.93 421.66 1042.19 425.05 1042.00 427.00 Z"/>
</g>
<g fill="#758788" fill-opacity="0.07" stroke="None">
<path d="
M 1260.00 436.00 
C 1260.00 432.35 1260.20 428.64 1260.00 425.00
C 1259.87 428.16 1259.68 432.70 1260.00 436.00 Z"/>
</g>
<g fill="#607A80" fill-opacity="0.11" stroke="None">
<path d="
M 920.00 431.00 
C 922.83 430.71 926.16 430.77 929.00 431.00
C 925.81 430.38 923.27 430.28 920.00 431.00 Z"/>
</g>
<g fill="#84A1A1" fill-opacity="0.03" stroke="None">
<path d="
M 1042.00 446.00 
C 1042.33 442.61 1042.33 438.46 1042.00 435.00
C 1042.00 438.67 1042.00 442.33 1042.00 446.00 Z"/>
</g>
<g fill="#638089" fill-opacity="0.15" stroke="None">
<path d="
M 707.00 450.00 
C 710.48 445.85 716.05 442.82 719.00 438.00
C 715.89 442.31 710.24 445.47 707.00 450.00 Z"/>
</g>
<g fill="#C3D4D4" fill-opacity="0.01" stroke="None">
<path d="
M 873.00 453.00 
C 872.74 449.17 872.65 444.83 873.00 441.00
C 872.17 445.01 872.27 448.95 873.00 453.00 Z"/>
</g>
<g fill="#90FFFF" fill-opacity="0.00" stroke="None">
<path d="
M 1071.00 465.00 
C 1071.00 465.04 1072.00 465.00 1072.00 465.00
C 1072.62 458.13 1072.00 450.90 1072.00 444.00
C 1071.40 450.18 1070.38 458.04 1071.00 465.00 Z"/>
</g>
<g fill="#F7F7F7" fill-opacity="0.01" stroke="None">
<path d="
M 1042.00 502.00 
C 1042.00 501.96 1043.00 502.00 1043.00 502.00
C 1043.00 485.44 1043.53 467.83 1042.00 452.00
C 1042.00 468.67 1042.00 485.33 1042.00 502.00 Z"/>
</g>
<g fill="#5B6E90" fill-opacity="0.07" stroke="None">
<path d="
M 1082.00 466.00 
C 1078.85 466.00 1074.39 466.76 1072.00 465.00
C 1072.00 465.00 1071.00 465.04 1071.00 465.00
C 1071.20 468.51 1080.10 467.41 1082.00 466.00 Z"/>
</g>
<g fill="#5B6D91" fill-opacity="0.05" stroke="None">
<path d="
M 1097.00 466.00 
C 1092.33 466.00 1087.67 466.00 1083.00 466.00
C 1086.58 468.65 1093.31 466.36 1097.00 466.00 Z"/>
</g>
<g fill="#5B6C85" fill-opacity="0.06" stroke="None">
<path d="
M 1122.00 467.00 
C 1117.00 465.76 1110.75 466.00 1105.00 466.00
C 1109.79 466.46 1116.59 466.33 1122.00 467.00 Z"/>
</g>
<g fill="#5F7883" fill-opacity="0.62" stroke="None">
<path d="
M 356.00 490.00 
C 356.44 483.56 356.38 477.45 356.00 471.00
C 355.28 476.97 355.27 483.96 356.00 490.00 Z"/>
</g>
<g fill="#617B8B" fill-opacity="0.15" stroke="None">
<path d="
M 697.00 486.00 
C 696.67 482.26 696.58 477.73 697.00 474.00
C 696.07 478.01 696.18 481.95 697.00 486.00 Z"/>
</g>
<g fill="#61798E" fill-opacity="0.07" stroke="None">
<path d="
M 793.00 485.00 
C 793.61 481.82 793.62 479.24 793.00 476.00
C 793.23 478.87 793.23 482.13 793.00 485.00 Z"/>
</g>
<g fill="#5F8A9B" fill-opacity="0.08" stroke="None">
<path d="
M 822.00 485.00 
C 822.27 482.24 822.27 478.82 822.00 476.00
C 822.00 479.00 822.00 482.00 822.00 485.00 Z"/>
</g>
<g fill="#3D5765" fill-opacity="0.72" stroke="None">
<path d="
M 1071.00 523.00 
C 1070.65 519.12 1070.87 514.90 1071.00 511.00
C 1071.11 507.78 1071.19 505.53 1071.00 502.00
C 1070.86 499.34 1071.11 496.66 1071.00 494.00
C 1067.94 496.14 1070.95 506.78 1070.00 510.00 C 1069.05 513.22 1070.38 523.41 1071.00 523.00 Z"/>
</g>
<g fill="#7A979B" fill-opacity="0.08" stroke="None">
<path d="
M 1071.00 502.00 
C 1071.68 491.83 1081.68 495.44 1090.00 495.00 C 1098.32 494.56 1107.60 495.46 1116.00 495.00
C 1112.12 494.83 1105.60 493.05 1101.00 494.00 C 1096.40 494.95 1090.26 492.74 1086.00 494.00 C 1081.74 495.26 1074.43 491.60 1071.00 494.00
C 1071.11 496.66 1070.86 499.34 1071.00 502.00 Z"/>
</g>
<g fill="#B1B1B1" fill-opacity="0.01" stroke="None">
<path d="
M 1042.00 513.00 
C 1042.29 509.99 1043.00 505.75 1043.00 502.00
C 1043.00 502.00 1042.00 501.96 1042.00 502.00
C 1042.00 505.67 1042.00 509.33 1042.00 513.00 Z"/>
</g>
<g fill="#FC6F60" fill-opacity="0.91" stroke="None">
<path d="
M 890.00 510.00 
C 870.77 504.16 862.88 531.10 879.99 538.01 C 897.11 544.92 906.77 515.09 890.00 510.00 Z"/>
</g>
<g fill="#708A97" fill-opacity="0.12" stroke="None">
<path d="
M 980.00 521.00 
C 980.66 517.29 980.68 513.77 980.00 510.00
C 980.24 513.55 980.24 517.45 980.00 521.00 Z"/>
</g>
<g fill="#B1FFFF" fill-opacity="0.00" stroke="None">
<path d="
M 1071.00 523.00 
C 1071.00 523.00 1071.97 522.88 1072.00 523.00
C 1072.37 518.89 1071.25 514.38 1071.00 511.00
C 1070.87 514.90 1070.65 519.12 1071.00 523.00 Z"/>
</g>
<g fill="#FC6F61" fill-opacity="0.91" stroke="None">
<path d="
M 479.00 515.00 
C 460.85 511.12 453.12 538.43 471.33 543.67 C 489.54 548.91 497.05 518.86 479.00 515.00 Z"/>
</g>
<g fill="#FC7061" fill-opacity="0.90" stroke="None">
<path d="
M 634.00 525.00 
C 615.27 520.36 608.41 548.70 625.98 554.02 C 643.54 559.34 651.36 529.30 634.00 525.00 Z"/>
</g>
<g fill="#88A1B2" fill-opacity="0.02" stroke="None">
<path d="
M 1043.00 541.00 
C 1043.00 535.93 1042.42 530.39 1042.00 526.00
C 1042.00 530.15 1040.66 537.83 1043.00 541.00 Z"/>
</g>
<g fill="#52678A" fill-opacity="0.38" stroke="None">
<path d="
M 748.00 528.00 
C 744.44 528.07 740.54 528.40 737.00 528.00
C 740.25 530.97 745.64 529.75 750.00 530.00
C 749.79 529.40 748.44 528.15 748.00 528.00 Z"/>
</g>
<g fill="#8B9297" fill-opacity="0.10" stroke="None">
<path d="
M 450.00 548.00 
C 451.29 544.17 450.75 542.54 449.00 539.00
C 449.90 541.69 450.53 545.03 450.00 548.00 Z"/>
</g>
<g fill="#586B74" fill-opacity="0.58" stroke="None">
<path d="
M 556.00 554.00 
C 561.67 554.00 567.33 554.00 573.00 554.00
C 577.67 554.00 582.33 554.00 587.00 554.00
C 580.48 549.18 563.28 554.41 556.00 554.00 Z"/>
</g>
<g fill="#E5FFFF" fill-opacity="0.01" stroke="None">
<path d="
M 573.00 555.00 
C 572.96 555.00 573.00 554.00 573.00 554.00
C 567.33 554.00 561.67 554.00 556.00 554.00
C 560.95 555.40 567.30 555.00 573.00 555.00 Z"/>
</g>
<g fill="#81FFFF" fill-opacity="0.00" stroke="None">
<path d="
M 573.00 555.00 
C 578.14 555.00 583.52 554.73 588.00 554.00
C 588.00 554.00 587.50 554.00 587.00 554.00
C 582.33 554.00 577.67 554.00 573.00 554.00
C 573.00 554.00 572.96 555.00 573.00 555.00 Z"/>
</g>
<g fill="#6C848D" fill-opacity="0.52" stroke="None">
<path d="
M 423.00 557.00 
C 428.03 557.72 433.85 558.28 439.00 557.00
C 433.99 557.18 428.14 556.79 423.00 557.00 Z"/>
</g>
<g fill="#6D858E" fill-opacity="0.26" stroke="None">
<path d="
M 740.00 558.00 
C 744.80 558.26 749.89 557.59 754.00 557.00
C 749.46 557.17 743.85 557.84 740.00 558.00 Z"/>
</g>
<g fill="#778B95" fill-opacity="0.18" stroke="None">
<path d="
M 941.00 557.00 
C 935.74 557.20 930.25 557.28 925.00 557.00
C 930.11 557.83 935.84 557.74 941.00 557.00 Z"/>
</g>
</svg>