<svg id="visual" viewBox="0 0 900 600" width="900" height="600" xmlns="http://www.w3.org/2000/svg" xmlns:xlink="http://www.w3.org/1999/xlink" version="1.1"><rect x="0" y="0" width="900" height="600" fill="#fff"></rect><defs><linearGradient id="grad1_0" x1="33.3%" y1="100%" x2="100%" y2="0%"><stop offset="20%" stop-color="#ffffff" stop-opacity="1"></stop><stop offset="80%" stop-color="#ffffff" stop-opacity="1"></stop></linearGradient></defs><defs><linearGradient id="grad2_0" x1="0%" y1="100%" x2="66.7%" y2="0%"><stop offset="20%" stop-color="#ffffff" stop-opacity="1"></stop><stop offset="80%" stop-color="#ffffff" stop-opacity="1"></stop></linearGradient></defs><g transform="translate(900, 600)"><path d="M-486.7 0C-452.3 -50.6 -417.9 -101.2 -401 -166.1C-384 -231 -384.4 -310.1 -344.2 -344.2C-303.9 -378.2 -223 -367.2 -158.8 -383.4C-94.7 -399.7 -47.3 -443.2 0 -486.7L0 0Z" fill="#FF6F61"></path></g><g transform="translate(0, 0)"><path d="M486.7 0C464.5 61.6 442.3 123.1 409.3 169.5C376.3 215.9 332.5 247.2 297 297C261.5 346.7 234.4 415 186.3 449.7C138.2 484.4 69.1 485.6 0 486.7L0 0Z" fill="#FF6F61"></path></g></svg>