<svg id="visual" viewBox="0 0 960 540" width="960" height="540" xmlns="http://www.w3.org/2000/svg" xmlns:xlink="http://www.w3.org/1999/xlink" version="1.1"><rect x="0" y="0" width="960" height="540" fill="#fff"></rect><path d="M0 317L22.8 324C45.7 331 91.3 345 137 345C182.7 345 228.3 331 274 337.8C319.7 344.7 365.3 372.3 411.2 383.5C457 394.7 503 389.3 548.8 380C594.7 370.7 640.3 357.3 686 354.8C731.7 352.3 777.3 360.7 823 355.7C868.7 350.7 914.3 332.3 937.2 323.2L960 314L960 541L937.2 541C914.3 541 868.7 541 823 541C777.3 541 731.7 541 686 541C640.3 541 594.7 541 548.8 541C503 541 457 541 411.2 541C365.3 541 319.7 541 274 541C228.3 541 182.7 541 137 541C91.3 541 45.7 541 22.8 541L0 541Z" fill="#f3b3ad"></path><path d="M0 355L22.8 366.8C45.7 378.7 91.3 402.3 137 407.5C182.7 412.7 228.3 399.3 274 390.2C319.7 381 365.3 376 411.2 375.5C457 375 503 379 548.8 378.7C594.7 378.3 640.3 373.7 686 369C731.7 364.3 777.3 359.7 823 368.2C868.7 376.7 914.3 398.3 937.2 409.2L960 420L960 541L937.2 541C914.3 541 868.7 541 823 541C777.3 541 731.7 541 686 541C640.3 541 594.7 541 548.8 541C503 541 457 541 411.2 541C365.3 541 319.7 541 274 541C228.3 541 182.7 541 137 541C91.3 541 45.7 541 22.8 541L0 541Z" fill="#f8a39b"></path><path d="M0 420L22.8 415.7C45.7 411.3 91.3 402.7 137 402C182.7 401.3 228.3 408.7 274 411.3C319.7 414 365.3 412 411.2 419.2C457 426.3 503 442.7 548.8 449C594.7 455.3 640.3 451.7 686 451.3C731.7 451 777.3 454 823 447.2C868.7 440.3 914.3 423.7 937.2 415.3L960 407L960 541L937.2 541C914.3 541 868.7 541 823 541C777.3 541 731.7 541 686 541C640.3 541 594.7 541 548.8 541C503 541 457 541 411.2 541C365.3 541 319.7 541 274 541C228.3 541 182.7 541 137 541C91.3 541 45.7 541 22.8 541L0 541Z" fill="#fc9288"></path><path d="M0 471L22.8 472.3C45.7 473.7 91.3 476.3 137 478.3C182.7 480.3 228.3 481.7 274 481.7C319.7 481.7 365.3 480.3 411.2 479.7C457 479 503 479 548.8 476C594.7 473 640.3 467 686 460.3C731.7 453.7 777.3 446.3 823 445C868.7 443.7 914.3 448.3 937.2 450.7L960 453L960 541L937.2 541C914.3 541 868.7 541 823 541C777.3 541 731.7 541 686 541C640.3 541 594.7 541 548.8 541C503 541 457 541 411.2 541C365.3 541 319.7 541 274 541C228.3 541 182.7 541 137 541C91.3 541 45.7 541 22.8 541L0 541Z" fill="#fe8175"></path><path d="M0 508L22.8 509.2C45.7 510.3 91.3 512.7 137 510.2C182.7 507.7 228.3 500.3 274 493.2C319.7 486 365.3 479 411.2 482.5C457 486 503 500 548.8 500.3C594.7 500.7 640.3 487.3 686 485.7C731.7 484 777.3 494 823 497.8C868.7 501.7 914.3 499.3 937.2 498.2L960 497L960 541L937.2 541C914.3 541 868.7 541 823 541C777.3 541 731.7 541 686 541C640.3 541 594.7 541 548.8 541C503 541 457 541 411.2 541C365.3 541 319.7 541 274 541C228.3 541 182.7 541 137 541C91.3 541 45.7 541 22.8 541L0 541Z" fill="#ff6f61"></path></svg>