<svg id="visual" viewBox="0 0 900 450" width="900" height="450" xmlns="http://www.w3.org/2000/svg" xmlns:xlink="http://www.w3.org/1999/xlink" version="1.1"><rect x="0" y="0" width="900" height="450" fill="#fff"></rect><defs><linearGradient id="grad1_0" x1="50%" y1="0%" x2="100%" y2="100%"><stop offset="10%" stop-color="#ffffff" stop-opacity="1"></stop><stop offset="90%" stop-color="#ffffff" stop-opacity="1"></stop></linearGradient></defs><defs><linearGradient id="grad2_0" x1="0%" y1="0%" x2="50%" y2="100%"><stop offset="10%" stop-color="#ffffff" stop-opacity="1"></stop><stop offset="90%" stop-color="#ffffff" stop-opacity="1"></stop></linearGradient></defs><g transform="translate(900, 0)"><path d="M0 270C-27.7 243.7 -55.3 217.4 -84.2 203.3C-113.1 189.1 -143.2 187 -173.2 173.2C-203.3 159.5 -233.3 134.1 -249.4 103.3C-265.6 72.5 -267.8 36.3 -270 0L0 0Z" fill="#FF6F61"></path></g><g transform="translate(0, 450)"><path d="M0 -270C32.2 -252.1 64.5 -234.1 89.2 -215.3C113.9 -196.4 131 -176.5 159.8 -159.8C188.6 -143.1 229.1 -129.4 249.4 -103.3C269.8 -77.2 269.9 -38.6 270 0L0 0Z" fill="#FF6F61"></path></g></svg>