<svg id="visual" viewBox="0 0 900 450" width="900" height="450" xmlns="http://www.w3.org/2000/svg" xmlns:xlink="http://www.w3.org/1999/xlink" version="1.1"><rect x="0" y="0" width="900" height="450" fill="#fff"></rect><path d="M0 264L21.5 269.8C43 275.7 86 287.3 128.8 287.3C171.7 287.3 214.3 275.7 257.2 281.3C300 287 343 310 385.8 319.3C428.7 328.7 471.3 324.3 514.2 316.5C557 308.7 600 297.3 642.8 295.2C685.7 293 728.3 300 771.2 296C814 292 857 277 878.5 269.5L900 262L900 451L878.5 451C857 451 814 451 771.2 451C728.3 451 685.7 451 642.8 451C600 451 557 451 514.2 451C471.3 451 428.7 451 385.8 451C343 451 300 451 257.2 451C214.3 451 171.7 451 128.8 451C86 451 43 451 21.5 451L0 451Z" fill="#f3b3ad"></path><path d="M0 296L21.5 305.8C43 315.7 86 335.3 128.8 339.7C171.7 344 214.3 333 257.2 325.3C300 317.7 343 313.3 385.8 312.8C428.7 312.3 471.3 315.7 514.2 315.3C557 315 600 311 642.8 307.2C685.7 303.3 728.3 299.7 771.2 306.8C814 314 857 332 878.5 341L900 350L900 451L878.5 451C857 451 814 451 771.2 451C728.3 451 685.7 451 642.8 451C600 451 557 451 514.2 451C471.3 451 428.7 451 385.8 451C343 451 300 451 257.2 451C214.3 451 171.7 451 128.8 451C86 451 43 451 21.5 451L0 451Z" fill="#f8a39b"></path><path d="M0 350L21.5 346.5C43 343 86 336 128.8 335.3C171.7 334.7 214.3 340.3 257.2 342.3C300 344.3 343 342.7 385.8 348.7C428.7 354.7 471.3 368.3 514.2 373.8C557 379.3 600 376.7 642.8 376.5C685.7 376.3 728.3 378.7 771.2 372.8C814 367 857 353 878.5 346L900 339L900 451L878.5 451C857 451 814 451 771.2 451C728.3 451 685.7 451 642.8 451C600 451 557 451 514.2 451C471.3 451 428.7 451 385.8 451C343 451 300 451 257.2 451C214.3 451 171.7 451 128.8 451C86 451 43 451 21.5 451L0 451Z" fill="#fc9288"></path><path d="M0 392L21.5 393.2C43 394.3 86 396.7 128.8 398.3C171.7 400 214.3 401 257.2 401C300 401 343 400 385.8 399.5C428.7 399 471.3 399 514.2 396.5C557 394 600 389 642.8 383.5C685.7 378 728.3 372 771.2 371C814 370 857 374 878.5 376L900 378L900 451L878.5 451C857 451 814 451 771.2 451C728.3 451 685.7 451 642.8 451C600 451 557 451 514.2 451C471.3 451 428.7 451 385.8 451C343 451 300 451 257.2 451C214.3 451 171.7 451 128.8 451C86 451 43 451 21.5 451L0 451Z" fill="#fe8175"></path><path d="M0 423L21.5 424C43 425 86 427 128.8 425C171.7 423 214.3 417 257.2 411C300 405 343 399 385.8 401.8C428.7 404.7 471.3 416.3 514.2 416.7C557 417 600 406 642.8 404.7C685.7 403.3 728.3 411.7 771.2 414.8C814 418 857 416 878.5 415L900 414L900 451L878.5 451C857 451 814 451 771.2 451C728.3 451 685.7 451 642.8 451C600 451 557 451 514.2 451C471.3 451 428.7 451 385.8 451C343 451 300 451 257.2 451C214.3 451 171.7 451 128.8 451C86 451 43 451 21.5 451L0 451Z" fill="#ff6f61"></path></svg>