<svg id="visual" viewBox="0 0 900 600" width="900" height="600" xmlns="http://www.w3.org/2000/svg" xmlns:xlink="http://www.w3.org/1999/xlink" version="1.1"><rect x="0" y="0" width="900" height="600" fill="#fff"></rect><path d="M0 353L21.5 360.8C43 368.7 86 384.3 128.8 384.2C171.7 384 214.3 368 257.2 375.5C300 383 343 414 385.8 426.5C428.7 439 471.3 433 514.2 422.5C557 412 600 397 642.8 394.2C685.7 391.3 728.3 400.7 771.2 395.2C814 389.7 857 369.3 878.5 359.2L900 349L900 601L878.5 601C857 601 814 601 771.2 601C728.3 601 685.7 601 642.8 601C600 601 557 601 514.2 601C471.3 601 428.7 601 385.8 601C343 601 300 601 257.2 601C214.3 601 171.7 601 128.8 601C86 601 43 601 21.5 601L0 601Z" fill="#f3b3ad"></path><path d="M0 394L21.5 407.2C43 420.3 86 446.7 128.8 452.5C171.7 458.3 214.3 443.7 257.2 433.7C300 423.7 343 418.3 385.8 417.8C428.7 417.3 471.3 421.7 514.2 421.2C557 420.7 600 415.3 642.8 410C685.7 404.7 728.3 399.3 771.2 408.7C814 418 857 442 878.5 454L900 466L900 601L878.5 601C857 601 814 601 771.2 601C728.3 601 685.7 601 642.8 601C600 601 557 601 514.2 601C471.3 601 428.7 601 385.8 601C343 601 300 601 257.2 601C214.3 601 171.7 601 128.8 601C86 601 43 601 21.5 601L0 601Z" fill="#f8a39b"></path><path d="M0 467L21.5 462.2C43 457.3 86 447.7 128.8 446.8C171.7 446 214.3 454 257.2 456.8C300 459.7 343 457.3 385.8 465.3C428.7 473.3 471.3 491.7 514.2 498.8C557 506 600 502 642.8 501.7C685.7 501.3 728.3 504.7 771.2 497C814 489.3 857 470.7 878.5 461.3L900 452L900 601L878.5 601C857 601 814 601 771.2 601C728.3 601 685.7 601 642.8 601C600 601 557 601 514.2 601C471.3 601 428.7 601 385.8 601C343 601 300 601 257.2 601C214.3 601 171.7 601 128.8 601C86 601 43 601 21.5 601L0 601Z" fill="#fc9288"></path><path d="M0 523L21.5 524.5C43 526 86 529 128.8 531.3C171.7 533.7 214.3 535.3 257.2 535.5C300 535.7 343 534.3 385.8 533.5C428.7 532.7 471.3 532.3 514.2 528.8C557 525.3 600 518.7 642.8 511.3C685.7 504 728.3 496 771.2 494.7C814 493.3 857 498.7 878.5 501.3L900 504L900 601L878.5 601C857 601 814 601 771.2 601C728.3 601 685.7 601 642.8 601C600 601 557 601 514.2 601C471.3 601 428.7 601 385.8 601C343 601 300 601 257.2 601C214.3 601 171.7 601 128.8 601C86 601 43 601 21.5 601L0 601Z" fill="#fe8175"></path><path d="M0 565L21.5 566.2C43 567.3 86 569.7 128.8 566.8C171.7 564 214.3 556 257.2 548.2C300 540.3 343 532.7 385.8 536.5C428.7 540.3 471.3 555.7 514.2 556C557 556.3 600 541.7 642.8 539.8C685.7 538 728.3 549 771.2 553.3C814 557.7 857 555.3 878.5 554.2L900 553L900 601L878.5 601C857 601 814 601 771.2 601C728.3 601 685.7 601 642.8 601C600 601 557 601 514.2 601C471.3 601 428.7 601 385.8 601C343 601 300 601 257.2 601C214.3 601 171.7 601 128.8 601C86 601 43 601 21.5 601L0 601Z" fill="#ff6f61"></path></svg>