<svg id="visual" viewBox="0 0 900 600" width="900" height="600" xmlns="http://www.w3.org/2000/svg" xmlns:xlink="http://www.w3.org/1999/xlink" version="1.1"><path d="M0 115L13.7 119C27.3 123 54.7 131 82 147C109.3 163 136.7 187 163.8 187C191 187 218 163 245.2 158C272.3 153 299.7 167 327 174C354.3 181 381.7 181 409 172C436.3 163 463.7 145 491 142C518.3 139 545.7 151 573 151C600.3 151 627.7 139 654.8 126C682 113 709 99 736.2 99C763.3 99 790.7 113 818 116C845.3 119 872.7 111 886.3 107L900 103L900 0L886.3 0C872.7 0 845.3 0 818 0C790.7 0 763.3 0 736.2 0C709 0 682 0 654.8 0C627.7 0 600.3 0 573 0C545.7 0 518.3 0 491 0C463.7 0 436.3 0 409 0C381.7 0 354.3 0 327 0C299.7 0 272.3 0 245.2 0C218 0 191 0 163.8 0C136.7 0 109.3 0 82 0C54.7 0 27.3 0 13.7 0L0 0Z" fill="#ff6f61"></path><path d="M0 187L13.7 195C27.3 203 54.7 219 82 238C109.3 257 136.7 279 163.8 273C191 267 218 233 245.2 223C272.3 213 299.7 227 327 241C354.3 255 381.7 269 409 265C436.3 261 463.7 239 491 237C518.3 235 545.7 253 573 254C600.3 255 627.7 239 654.8 226C682 213 709 203 736.2 210C763.3 217 790.7 241 818 244C845.3 247 872.7 229 886.3 220L900 211L900 101L886.3 105C872.7 109 845.3 117 818 114C790.7 111 763.3 97 736.2 97C709 97 682 111 654.8 124C627.7 137 600.3 149 573 149C545.7 149 518.3 137 491 140C463.7 143 436.3 161 409 170C381.7 179 354.3 179 327 172C299.7 165 272.3 151 245.2 156C218 161 191 185 163.8 185C136.7 185 109.3 161 82 145C54.7 129 27.3 121 13.7 117L0 113Z" fill="#fe9c8e"></path><path d="M0 241L13.7 254C27.3 267 54.7 293 82 311C109.3 329 136.7 339 163.8 328C191 317 218 285 245.2 279C272.3 273 299.7 293 327 307C354.3 321 381.7 329 409 320C436.3 311 463.7 285 491 282C518.3 279 545.7 299 573 300C600.3 301 627.7 283 654.8 274C682 265 709 265 736.2 274C763.3 283 790.7 301 818 307C845.3 313 872.7 307 886.3 304L900 301L900 209L886.3 218C872.7 227 845.3 245 818 242C790.7 239 763.3 215 736.2 208C709 201 682 211 654.8 224C627.7 237 600.3 253 573 252C545.7 251 518.3 233 491 235C463.7 237 436.3 259 409 263C381.7 267 354.3 253 327 239C299.7 225 272.3 211 245.2 221C218 231 191 265 163.8 271C136.7 277 109.3 255 82 236C54.7 217 27.3 201 13.7 193L0 185Z" fill="#f5c6be"></path><path d="M0 397L13.7 402C27.3 407 54.7 417 82 426C109.3 435 136.7 443 163.8 435C191 427 218 403 245.2 398C272.3 393 299.7 407 327 412C354.3 417 381.7 413 409 408C436.3 403 463.7 397 491 393C518.3 389 545.7 387 573 389C600.3 391 627.7 397 654.8 405C682 413 709 423 736.2 431C763.3 439 790.7 445 818 439C845.3 433 872.7 415 886.3 406L900 397L900 299L886.3 302C872.7 305 845.3 311 818 305C790.7 299 763.3 281 736.2 272C709 263 682 263 654.8 272C627.7 281 600.3 299 573 298C545.7 297 518.3 277 491 280C463.7 283 436.3 309 409 318C381.7 327 354.3 319 327 305C299.7 291 272.3 271 245.2 277C218 283 191 315 163.8 326C136.7 337 109.3 327 82 309C54.7 291 27.3 265 13.7 252L0 239Z" fill="#e6e6e6"></path><path d="M0 451L13.7 457C27.3 463 54.7 475 82 482C109.3 489 136.7 491 163.8 482C191 473 218 453 245.2 446C272.3 439 299.7 445 327 453C354.3 461 381.7 471 409 474C436.3 477 463.7 473 491 470C518.3 467 545.7 465 573 466C600.3 467 627.7 471 654.8 476C682 481 709 487 736.2 490C763.3 493 790.7 493 818 490C845.3 487 872.7 481 886.3 478L900 475L900 395L886.3 404C872.7 413 845.3 431 818 437C790.7 443 763.3 437 736.2 429C709 421 682 411 654.8 403C627.7 395 600.3 389 573 387C545.7 385 518.3 387 491 391C463.7 395 436.3 401 409 406C381.7 411 354.3 415 327 410C299.7 405 272.3 391 245.2 396C218 401 191 425 163.8 433C136.7 441 109.3 433 82 424C54.7 415 27.3 405 13.7 400L0 395Z" fill="#e6e6e6"></path><path d="M0 493L13.7 498C27.3 503 54.7 513 82 522C109.3 531 136.7 539 163.8 535C191 531 218 515 245.2 507C272.3 499 299.7 499 327 501C354.3 503 381.7 507 409 507C436.3 507 463.7 503 491 504C518.3 505 545.7 511 573 512C600.3 513 627.7 509 654.8 510C682 511 709 517 736.2 524C763.3 531 790.7 539 818 542C845.3 545 872.7 543 886.3 542L900 541L900 473L886.3 476C872.7 479 845.3 485 818 488C790.7 491 763.3 491 736.2 488C709 485 682 479 654.8 474C627.7 469 600.3 465 573 464C545.7 463 518.3 465 491 468C463.7 471 436.3 475 409 472C381.7 469 354.3 459 327 451C299.7 443 272.3 437 245.2 444C218 451 191 471 163.8 480C136.7 489 109.3 487 82 480C54.7 473 27.3 461 13.7 455L0 449Z" fill="#f5c6be"></path><path d="M0 541L13.7 543C27.3 545 54.7 549 82 556C109.3 563 136.7 573 163.8 572C191 571 218 559 245.2 552C272.3 545 299.7 543 327 544C354.3 545 381.7 549 409 551C436.3 553 463.7 553 491 555C518.3 557 545.7 561 573 559C600.3 557 627.7 549 654.8 545C682 541 709 541 736.2 548C763.3 555 790.7 569 818 575C845.3 581 872.7 579 886.3 578L900 577L900 539L886.3 540C872.7 541 845.3 543 818 540C790.7 537 763.3 529 736.2 522C709 515 682 509 654.8 508C627.7 507 600.3 511 573 510C545.7 509 518.3 503 491 502C463.7 501 436.3 505 409 505C381.7 505 354.3 501 327 499C299.7 497 272.3 497 245.2 505C218 513 191 529 163.8 533C136.7 537 109.3 529 82 520C54.7 511 27.3 501 13.7 496L0 491Z" fill="#fe9c8e"></path><path d="M0 601L13.7 601C27.3 601 54.7 601 82 601C109.3 601 136.7 601 163.8 601C191 601 218 601 245.2 601C272.3 601 299.7 601 327 601C354.3 601 381.7 601 409 601C436.3 601 463.7 601 491 601C518.3 601 545.7 601 573 601C600.3 601 627.7 601 654.8 601C682 601 709 601 736.2 601C763.3 601 790.7 601 818 601C845.3 601 872.7 601 886.3 601L900 601L900 575L886.3 576C872.7 577 845.3 579 818 573C790.7 567 763.3 553 736.2 546C709 539 682 539 654.8 543C627.7 547 600.3 555 573 557C545.7 559 518.3 555 491 553C463.7 551 436.3 551 409 549C381.7 547 354.3 543 327 542C299.7 541 272.3 543 245.2 550C218 557 191 569 163.8 570C136.7 571 109.3 561 82 554C54.7 547 27.3 543 13.7 541L0 539Z" fill="#ff6f61"></path></svg>