<svg id="visual" viewBox="0 0 900 600" width="900" height="600" xmlns="http://www.w3.org/2000/svg" xmlns:xlink="http://www.w3.org/1999/xlink" version="1.1"><path d="M0 73L13.7 82C27.3 91 54.7 109 82 115C109.3 121 136.7 115 163.8 103C191 91 218 73 245.2 73C272.3 73 299.7 91 327 90C354.3 89 381.7 69 409 69C436.3 69 463.7 89 491 92C518.3 95 545.7 81 573 80C600.3 79 627.7 91 654.8 88C682 85 709 67 736.2 59C763.3 51 790.7 53 818 59C845.3 65 872.7 75 886.3 80L900 85L900 0L886.3 0C872.7 0 845.3 0 818 0C790.7 0 763.3 0 736.2 0C709 0 682 0 654.8 0C627.7 0 600.3 0 573 0C545.7 0 518.3 0 491 0C463.7 0 436.3 0 409 0C381.7 0 354.3 0 327 0C299.7 0 272.3 0 245.2 0C218 0 191 0 163.8 0C136.7 0 109.3 0 82 0C54.7 0 27.3 0 13.7 0L0 0Z" fill="#ff9e92"></path><path d="M0 235L13.7 238C27.3 241 54.7 247 82 238C109.3 229 136.7 205 163.8 181C191 157 218 133 245.2 134C272.3 135 299.7 161 327 163C354.3 165 381.7 143 409 153C436.3 163 463.7 205 491 219C518.3 233 545.7 219 573 210C600.3 201 627.7 197 654.8 197C682 197 709 201 736.2 202C763.3 203 790.7 201 818 195C845.3 189 872.7 179 886.3 174L900 169L900 83L886.3 78C872.7 73 845.3 63 818 57C790.7 51 763.3 49 736.2 57C709 65 682 83 654.8 86C627.7 89 600.3 77 573 78C545.7 79 518.3 93 491 90C463.7 87 436.3 67 409 67C381.7 67 354.3 87 327 88C299.7 89 272.3 71 245.2 71C218 71 191 89 163.8 101C136.7 113 109.3 119 82 113C54.7 107 27.3 89 13.7 80L0 71Z" fill="#f06659"></path><path d="M0 343L13.7 343C27.3 343 54.7 343 82 347C109.3 351 136.7 359 163.8 348C191 337 218 307 245.2 300C272.3 293 299.7 309 327 314C354.3 319 381.7 313 409 319C436.3 325 463.7 343 491 342C518.3 341 545.7 321 573 320C600.3 319 627.7 337 654.8 343C682 349 709 343 736.2 336C763.3 329 790.7 321 818 324C845.3 327 872.7 341 886.3 348L900 355L900 167L886.3 172C872.7 177 845.3 187 818 193C790.7 199 763.3 201 736.2 200C709 199 682 195 654.8 195C627.7 195 600.3 199 573 208C545.7 217 518.3 231 491 217C463.7 203 436.3 161 409 151C381.7 141 354.3 163 327 161C299.7 159 272.3 133 245.2 132C218 131 191 155 163.8 179C136.7 203 109.3 227 82 236C54.7 245 27.3 239 13.7 236L0 233Z" fill="#c44c40"></path><path d="M0 523L13.7 524C27.3 525 54.7 527 82 525C109.3 523 136.7 517 163.8 512C191 507 218 503 245.2 504C272.3 505 299.7 511 327 513C354.3 515 381.7 513 409 514C436.3 515 463.7 519 491 523C518.3 527 545.7 531 573 530C600.3 529 627.7 523 654.8 526C682 529 709 541 736.2 541C763.3 541 790.7 529 818 526C845.3 523 872.7 529 886.3 532L900 535L900 353L886.3 346C872.7 339 845.3 325 818 322C790.7 319 763.3 327 736.2 334C709 341 682 347 654.8 341C627.7 335 600.3 317 573 318C545.7 319 518.3 339 491 340C463.7 341 436.3 323 409 317C381.7 311 354.3 317 327 312C299.7 307 272.3 291 245.2 298C218 305 191 335 163.8 346C136.7 357 109.3 349 82 345C54.7 341 27.3 341 13.7 341L0 341Z" fill="#f06659"></path><path d="M0 601L13.7 601C27.3 601 54.7 601 82 601C109.3 601 136.7 601 163.8 601C191 601 218 601 245.2 601C272.3 601 299.7 601 327 601C354.3 601 381.7 601 409 601C436.3 601 463.7 601 491 601C518.3 601 545.7 601 573 601C600.3 601 627.7 601 654.8 601C682 601 709 601 736.2 601C763.3 601 790.7 601 818 601C845.3 601 872.7 601 886.3 601L900 601L900 533L886.3 530C872.7 527 845.3 521 818 524C790.7 527 763.3 539 736.2 539C709 539 682 527 654.8 524C627.7 521 600.3 527 573 528C545.7 529 518.3 525 491 521C463.7 517 436.3 513 409 512C381.7 511 354.3 513 327 511C299.7 509 272.3 503 245.2 502C218 501 191 505 163.8 510C136.7 515 109.3 521 82 523C54.7 525 27.3 523 13.7 522L0 521Z" fill="#ff9e92"></path></svg>